<?xml version="1.0" encoding="UTF-8" standalone="no"?>
<!-- Created with Inkscape (http://www.inkscape.org/) -->

<svg
   xmlns:dc="http://purl.org/dc/elements/1.1/"
   xmlns:cc="http://creativecommons.org/ns#"
   xmlns:rdf="http://www.w3.org/1999/02/22-rdf-syntax-ns#"
   xmlns:svg="http://www.w3.org/2000/svg"
   xmlns="http://www.w3.org/2000/svg"
   xmlns:sodipodi="http://sodipodi.sourceforge.net/DTD/sodipodi-0.dtd"
   xmlns:inkscape="http://www.inkscape.org/namespaces/inkscape"
   width="42mm"
   height="42mm"
   viewBox="0 0 42 42"
   version="1.1"
   id="svg8"
   sodipodi:docname="icono-contacto.svg"
   inkscape:version="0.92.5 (2060ec1f9f, 2020-04-08)">
  <defs
     id="defs2">
    <clipPath
       clipPathUnits="userSpaceOnUse"
       id="clipPath23">
      <rect
         style="fill:#d09c14;stroke-width:0.26458332"
         id="rect25"
         width="198.62651"
         height="66.523804"
         x="0.1889881"
         y="13.328869" />
    </clipPath>
  </defs>
  <sodipodi:namedview
     id="base"
     pagecolor="#ffffff"
     bordercolor="#666666"
     borderopacity="1.0"
     inkscape:pageopacity="0.0"
     inkscape:pageshadow="2"
     inkscape:zoom="1.4"
     inkscape:cx="161.21692"
     inkscape:cy="35.992688"
     inkscape:document-units="mm"
     inkscape:current-layer="layer1"
     showgrid="false"
     inkscape:window-width="1366"
     inkscape:window-height="705"
     inkscape:window-x="-8"
     inkscape:window-y="-8"
     inkscape:window-maximized="1" />
  <metadata
     id="metadata5">
    <rdf:RDF>
      <cc:Work
         rdf:about="">
        <dc:format>image/svg+xml</dc:format>
        <dc:type
           rdf:resource="http://purl.org/dc/dcmitype/StillImage" />
        <dc:title></dc:title>
      </cc:Work>
    </rdf:RDF>
  </metadata>
  <g
     inkscape:label="Capa 1"
     inkscape:groupmode="layer"
     id="layer1"
     transform="translate(0,-255)">
    <path
       style="fill:#abb3e8;fill-opacity:1;stroke:#f4f0f4;stroke-width:1.02047253;stroke-miterlimit:4;stroke-dasharray:none"
       d=""
       id="path4703"
       inkscape:connector-curvature="0"
       transform="matrix(0.26458333,0,0,0.26458333,0,247)" />
    <path
       style="fill:#abb3e8;fill-opacity:1;stroke:#f4f0f4;stroke-width:1.02047253;stroke-miterlimit:4;stroke-dasharray:none"
       d=""
       id="path4705"
       inkscape:connector-curvature="0"
       transform="matrix(0.26458333,0,0,0.26458333,0,247)" />
    <path
       style="fill:#abb3e8;fill-opacity:1;stroke:#f4f0f4;stroke-width:1.02047253;stroke-miterlimit:4;stroke-dasharray:none"
       d=""
       id="path4707"
       inkscape:connector-curvature="0"
       transform="matrix(0.26458333,0,0,0.26458333,0,247)" />
    <g
       id="g4736"
       transform="matrix(0.79282116,0,0,0.71142159,-4.4715433,80.061821)">
      <path
         style="fill:#e7e7e7;stroke-width:0.26458332"
         d="m 21.205163,304.80674 c -6.967656,-0.43143 -12.2680626,-2.60964 -13.7377196,-5.64555 -0.8210701,-1.6961 -0.7782483,-5.03589 0.086317,-6.7321 1.6856369,-3.3071 7.3114496,-7.1831 14.6727016,-10.10903 2.726394,-1.08368 3.294977,-1.79276 3.138146,-3.91358 -0.08123,-1.0985 -0.271723,-1.57974 -0.890202,-2.24896 -2.482387,-2.68604 -4.676713,-7.11549 -5.495334,-11.09286 -0.527764,-2.5642 -0.533783,-6.70407 -0.01296,-8.91356 0.929341,-3.94255 3.706848,-7.45477 7.19004,-9.09197 l 1.795887,-0.84412 h 4.497917 4.497917 l 1.795885,0.84412 c 3.453453,1.62322 6.157244,5.01665 7.191823,9.02621 1.568209,6.07766 -0.764517,14.68208 -5.442493,20.07501 -0.835228,0.96288 -1.170818,2.28686 -0.94007,3.70879 0.203497,1.254 0.733288,1.71325 2.818813,2.44351 3.203406,1.1217 8.603033,3.9016 10.813084,5.56692 2.181678,1.64394 3.891243,3.61433 4.517724,5.20698 0.210335,0.53473 0.298939,1.72173 0.240265,3.21886 -0.08372,2.13632 -0.17276,2.48557 -0.897001,3.51851 -1.371441,1.95601 -4.53272,3.53625 -8.98553,4.49165 -2.067751,0.44366 -3.757166,0.52418 -12.832292,0.61163 -5.748073,0.0554 -12.058385,10e-4 -14.022918,-0.12046 z"
         id="path4754"
         inkscape:connector-curvature="0" />
      <path
         style="fill:#d7d7d7;stroke-width:0.26458332"
         d="m 22.52808,304.79999 c -8.44312,-0.43605 -14.0604116,-2.85066 -15.3092936,-6.58076 -0.3981558,-1.18919 -0.3636232,-3.6231 0.068573,-4.83316 0.5831811,-1.63278 2.211614,-3.57209 4.3567766,-5.18852 2.67855,-2.01835 4.923579,-3.26165 9.403724,-5.20781 3.356842,-1.4582 3.72446,-1.68567 4.196309,-2.59653 0.722814,-1.39533 0.452259,-3.07413 -0.705895,-4.3801 -2.221107,-2.50457 -4.236379,-6.4133 -5.207238,-10.09971 -0.444562,-1.68802 -0.594361,-3.00786 -0.600595,-5.29166 -0.0095,-3.46414 0.450488,-5.57649 1.74452,-8.01192 1.001471,-1.88482 3.610836,-4.3757 5.606846,-5.35225 3.055486,-1.49491 9.676921,-1.49681 12.728821,-0.004 2.004277,0.9806 4.611847,3.46868 5.613128,5.35591 1.403464,2.64527 1.771189,4.32519 1.753772,8.01192 -0.02745,5.80918 -1.467033,9.55952 -6.107496,15.91092 -0.860044,1.17714 -1.042951,2.8858 -0.438251,4.09397 0.45634,0.91176 0.755155,1.08722 4.222718,2.4796 7.001222,2.8113 11.713073,6.08823 13.340202,9.27767 0.735439,1.44158 0.978474,4.04945 0.527492,5.6602 -1.086736,3.88144 -6.661211,6.27826 -15.747238,6.77073 -5.023107,0.27226 -14.020933,0.26539 -19.446875,-0.0148 z"
         id="path4752"
         inkscape:connector-curvature="0" />
      <path
         style="fill:#c7c7c7;stroke-width:0.26458332"
         d="m 22.924955,304.80993 c -6.689094,-0.42902 -11.324591,-1.81869 -13.9405717,-4.17924 -1.4459778,-1.30478 -1.8021366,-2.25764 -1.8021366,-4.82141 0,-1.62866 0.128353,-2.3873 0.5406263,-3.19542 1.6763738,-3.28597 6.51336,-6.68864 13.873123,-9.75932 3.527876,-1.47191 4.220687,-2.22099 4.047951,-4.3767 -0.09057,-1.13027 -0.312119,-1.57977 -1.499691,-3.04271 -1.814102,-2.23474 -4.100819,-6.91375 -4.782746,-9.78631 -0.650872,-2.74174 -0.709796,-7.04149 -0.130196,-9.50038 0.884033,-3.7504 3.507466,-7.12546 6.793948,-8.74044 3.466434,-1.7034 9.385693,-1.70204 12.855396,0.003 4.633661,2.27697 7.242829,6.98714 7.244218,13.07754 0.0013,5.51984 -2.053971,10.85098 -6.204392,16.09378 -0.472766,0.5972 -0.591362,1.08681 -0.591362,2.44139 0,2.08278 0.491064,2.6576 3.042708,3.56168 6.845943,2.42561 13.057846,6.58176 14.712709,9.84374 0.512289,1.00979 0.633124,1.65525 0.633124,3.38193 0,1.19707 -0.157077,2.50776 -0.357777,2.98536 -1.081866,2.57451 -5.038058,4.56777 -11.151598,5.61856 -2.837045,0.48763 -17.864227,0.74256 -23.283333,0.39499 z"
         id="path4750"
         inkscape:connector-curvature="0" />
      <path
         style="fill:#afafaf;stroke-width:0.26458332"
         d="m 23.32183,304.81526 c -7.589274,-0.49545 -13.234086,-2.44671 -15.2022482,-5.25501 -0.6966926,-0.99409 -0.8155625,-1.42112 -0.8974362,-3.22402 -0.080422,-1.77093 0.00188,-2.28839 0.5566854,-3.50026 1.5248168,-3.33063 7.233326,-7.33707 14.429737,-10.12729 1.061195,-0.41145 2.212424,-1.01035 2.558286,-1.33089 0.62405,-0.57835 1.255709,-2.25355 1.074739,-2.85027 -0.05187,-0.17105 -0.159319,-0.61156 -0.238768,-0.97892 -0.07945,-0.36735 -0.805462,-1.49742 -1.613362,-2.51125 -4.000624,-5.02039 -6.015421,-12.68644 -4.78628,-18.2112 1.663852,-7.47869 7.500355,-11.46751 15.427468,-10.54353 5.461934,0.63663 9.726935,4.57176 11.05394,10.19897 1.345805,5.70694 -0.671248,13.51624 -4.800532,18.58588 -0.647512,0.79497 -1.292029,1.74718 -1.432261,2.11602 -0.387413,1.01897 -0.30834,3.35264 0.135046,3.98566 0.225034,0.32128 1.596083,1.0332 3.241146,1.68298 7.49912,2.96204 12.718913,6.50299 14.228069,9.6519 0.713137,1.48798 0.853917,4.57948 0.277294,6.08934 -1.05148,2.75326 -5.018394,4.71088 -11.786523,5.81649 -2.977592,0.48641 -17.051659,0.74313 -22.225,0.4054 z"
         id="path4748"
         inkscape:connector-curvature="0" />
      <path
         style="fill:#909090;stroke-width:0.26458332"
         d="m 24.021862,304.80319 c -7.025727,-0.51933 -12.322869,-2.04141 -14.8613996,-4.27027 -1.4551498,-1.27764 -1.8082302,-2.17089 -1.8140349,-4.58931 -0.00442,-1.8419 0.094761,-2.30005 0.7640376,-3.52937 1.7176072,-3.15488 7.1103339,-6.82678 14.0876549,-9.59226 2.25111,-0.89224 2.831163,-1.30934 3.429224,-2.46586 0.520668,-1.00686 0.312341,-2.90162 -0.420386,-3.82346 -4.169661,-5.24587 -6.191615,-10.44386 -6.189151,-15.91092 0.004,-8.8686 5.131843,-14.34489 13.432148,-14.34489 8.262408,0 13.478145,5.5102 13.453068,14.21259 -0.01622,5.63004 -2.008519,10.76621 -6.239796,16.0863 -0.468003,0.58843 -0.589923,1.08642 -0.593804,2.42539 -0.0064,2.21299 0.480734,2.72631 3.797564,4.00159 7.168896,2.75635 12.906857,6.71577 14.244474,9.82924 0.579284,1.34836 0.588227,4.94373 0.01497,6.02207 -1.472216,2.76937 -5.686213,4.63168 -12.632113,5.58255 -3.388178,0.46384 -16.081985,0.69115 -20.472466,0.36661 z"
         id="path4746"
         inkscape:connector-curvature="0" />
      <path
         style="fill:#6d6d6d;stroke-width:0.26458332"
         d="m 24.11558,304.66282 c -9.147236,-0.77077 -14.6548157,-2.74167 -16.1201391,-5.76863 -0.7879575,-1.6277 -0.7530439,-4.35673 0.078367,-6.12558 1.483982,-3.15722 6.5911941,-6.69452 14.1390301,-9.79284 1.421839,-0.58365 2.67833,-1.28488 2.972581,-1.65896 1.223839,-1.55586 1.110277,-4.02092 -0.252527,-5.48153 -3.096822,-3.31907 -5.49253,-9.26175 -5.769616,-14.31183 -0.494017,-9.00377 4.916668,-15.18921 13.286679,-15.18921 8.016179,0 13.343297,5.6233 13.357548,14.10021 0.009,5.3568 -2.149536,10.94421 -6.131827,15.87231 -0.451798,0.5591 -0.619131,1.16673 -0.696016,2.52741 -0.09072,1.60555 -0.03243,1.87311 0.562031,2.57958 0.437438,0.51987 1.279839,0.99929 2.474298,1.40814 0.996077,0.34095 3.239799,1.31138 4.986049,2.1565 7.499271,3.62939 10.442491,6.71328 10.448457,10.94783 0.0044,3.15523 -1.057238,4.60316 -4.586078,6.2545 -5.014058,2.34636 -17.532792,3.42719 -28.748837,2.4821 z"
         id="path4744"
         inkscape:connector-curvature="0" />
      <path
         style="fill:#575757;stroke-width:0.26458332"
         d="m 27.158288,304.80015 c -1.309687,-0.13006 -3.690937,-0.36643 -5.291666,-0.52527 -7.100048,-0.70453 -11.827495,-2.45864 -13.5203238,-5.01667 -0.6306423,-0.95297 -0.7142305,-1.33406 -0.7140098,-3.25529 1.989e-4,-1.73144 0.1213363,-2.4132 0.592954,-3.33715 1.5618724,-3.0599 7.0496916,-6.80866 13.9939936,-9.55937 3.333004,-1.32024 4.283875,-2.56684 3.899828,-5.11271 -0.120099,-0.79614 -0.578145,-1.61179 -1.657868,-2.95216 -3.156373,-3.91835 -5.168541,-9.5927 -5.160619,-14.55303 0.0071,-4.47081 1.098542,-7.51486 3.655467,-10.19552 2.479695,-2.59971 5.457272,-3.79055 9.493911,-3.79699 7.455223,-0.0119 12.466746,4.73506 13.237094,12.53825 0.474413,4.80554 -1.677602,11.51756 -5.049412,15.74885 -1.573202,1.97421 -2.100972,3.37312 -1.883704,4.99297 0.224518,1.6739 0.905161,2.31481 3.460189,3.25819 7.191296,2.65522 12.56356,6.17026 14.29639,9.35404 0.656532,1.20627 0.75736,1.67679 0.75736,3.53429 0,1.45451 -0.137174,2.40804 -0.427059,2.96862 -1.151729,2.22719 -4.923671,4.02567 -10.437551,4.97665 -4.966996,0.85667 -15.075421,1.34635 -19.244974,0.9323 z"
         id="path4742"
         inkscape:connector-curvature="0" />
      <path
         style="fill:#464646;stroke-width:0.26458332"
         d="m 30.46558,304.84775 c 0,-0.12319 -1.934766,-0.2976 -4.299479,-0.38759 -10.043526,-0.38217 -16.6908042,-2.55819 -18.0972239,-5.92423 -0.5327108,-1.27496 -0.4466678,-4.22229 0.1624353,-5.5641 1.4109097,-3.10812 6.8024866,-6.89287 13.6993996,-9.61663 2.567473,-1.01396 3.138427,-1.38228 3.78401,-2.44107 0.593784,-0.97383 0.693472,-3.17933 0.182895,-4.04634 -0.179756,-0.30525 -0.947423,-1.37681 -1.705928,-2.38125 -5.984755,-7.92526 -6.457936,-18.94583 -1.043015,-24.29224 2.469088,-2.43784 5.463816,-3.59548 9.301281,-3.59548 3.834111,0 6.896775,1.17372 9.279154,3.5561 4.22279,4.22279 5.032759,11.69673 2.051868,18.93348 -0.825095,2.0031 -2.710574,5.10828 -4.38966,7.2293 -0.491641,0.62104 -0.591362,1.0775 -0.591362,2.70689 0,1.83222 0.05171,2.00944 0.79375,2.72057 0.436563,0.41838 1.567656,1.03474 2.513542,1.3697 6.838524,2.42164 12.797888,6.37446 14.441228,9.57881 0.747681,1.4579 0.886672,4.4119 0.274696,5.83813 -1.453082,3.38643 -7.959088,5.5504 -17.824778,5.92871 -2.364714,0.0907 -4.29948,0.2653 -4.29948,0.38805 0,0.12275 -0.9525,0.22318 -2.116666,0.22318 -1.164167,0 -2.116667,-0.1008 -2.116667,-0.22399 z"
         id="path4740"
         inkscape:connector-curvature="0" />
      <path
         style="fill:#323232;stroke-width:0.26458332"
         d="m 31.986934,304.88501 c 0.327422,-0.0631 0.863203,-0.0631 1.190625,0 0.327422,0.0631 0.05953,0.11466 -0.595312,0.11466 -0.654844,0 -0.922735,-0.0516 -0.595313,-0.11466 z m -8.400521,-0.64037 c -7.688739,-0.62076 -13.213855,-2.48998 -15.0066287,-5.07696 -0.629639,-0.90856 -0.7090286,-1.26725 -0.7043653,-3.18236 0.00612,-2.51239 0.3304122,-3.29742 2.179402,-5.27576 2.283954,-2.44372 6.299118,-4.87933 11.876575,-7.20438 3.152272,-1.31407 4.107514,-2.08628 4.43711,-3.58693 0.364385,-1.65903 -0.07306,-2.98413 -1.620833,-4.90978 -1.822629,-2.2676 -3.864237,-6.40437 -4.619249,-9.35965 -0.761033,-2.97885 -0.779306,-7.29115 -0.04172,-9.84589 1.35355,-4.68825 4.689597,-7.79365 9.45745,-8.80359 2.323039,-0.49207 3.488565,-0.49207 5.811604,0 2.585138,0.5476 4.520182,1.56832 6.257687,3.3009 1.615871,1.61129 2.559127,3.23823 3.306223,5.70259 0.684363,2.25744 0.622845,6.94006 -0.128463,9.77828 -0.730089,2.75805 -2.833831,6.9829 -4.503896,9.04498 -1.488353,1.83771 -2.01226,3.3342 -1.758858,5.02401 0.25509,1.70105 1.118164,2.5374 3.50356,3.39509 6.948866,2.4985 12.775157,6.34272 14.433682,9.52342 0.796817,1.52813 0.796195,4.94694 -0.0011,6.23705 -1.73898,2.81373 -6.977603,4.56085 -15.784793,5.26437 -3.941337,0.31483 -13.046871,0.30131 -17.093348,-0.0254 z"
         id="path4738"
         inkscape:connector-curvature="0" />
    </g>
  </g>
</svg>
