<?xml version="1.0" encoding="UTF-8" standalone="no"?>
<!-- Created with Inkscape (http://www.inkscape.org/) -->

<svg
   xmlns:dc="http://purl.org/dc/elements/1.1/"
   xmlns:cc="http://creativecommons.org/ns#"
   xmlns:rdf="http://www.w3.org/1999/02/22-rdf-syntax-ns#"
   xmlns:svg="http://www.w3.org/2000/svg"
   xmlns="http://www.w3.org/2000/svg"
   xmlns:sodipodi="http://sodipodi.sourceforge.net/DTD/sodipodi-0.dtd"
   xmlns:inkscape="http://www.inkscape.org/namespaces/inkscape"
   width="42mm"
   height="50mm"
   viewBox="0 0 42 50"
   version="1.1"
   id="svg8"
   sodipodi:docname="icono-medico.svg"
   inkscape:version="0.92.5 (2060ec1f9f, 2020-04-08)">
  <defs
     id="defs2">
    <clipPath
       clipPathUnits="userSpaceOnUse"
       id="clipPath23">
      <rect
         style="fill:#d09c14;stroke-width:0.26458332"
         id="rect25"
         width="198.62651"
         height="66.523804"
         x="0.1889881"
         y="13.328869" />
    </clipPath>
  </defs>
  <sodipodi:namedview
     id="base"
     pagecolor="#ffffff"
     bordercolor="#666666"
     borderopacity="1.0"
     inkscape:pageopacity="0.0"
     inkscape:pageshadow="2"
     inkscape:zoom="0.7"
     inkscape:cx="153.90524"
     inkscape:cy="204.85301"
     inkscape:document-units="mm"
     inkscape:current-layer="layer1"
     showgrid="false"
     inkscape:window-width="1366"
     inkscape:window-height="705"
     inkscape:window-x="-8"
     inkscape:window-y="-8"
     inkscape:window-maximized="1" />
  <metadata
     id="metadata5">
    <rdf:RDF>
      <cc:Work
         rdf:about="">
        <dc:format>image/svg+xml</dc:format>
        <dc:type
           rdf:resource="http://purl.org/dc/dcmitype/StillImage" />
        <dc:title></dc:title>
      </cc:Work>
    </rdf:RDF>
  </metadata>
  <g
     inkscape:label="Capa 1"
     inkscape:groupmode="layer"
     id="layer1"
     transform="translate(0,-247)">
    <g
       id="g75"
       transform="translate(-13.694236,10.422647)"
       style="fill:#abb3e8;fill-opacity:1">
      <path
         style="fill:#abb3e8;stroke-width:0.26458332;fill-opacity:1"
         d="m 26.395464,286.58782 c -4.81268,-1.16077 -8.709122,-4.17612 -10.782338,-8.34416 -1.479192,-2.9738 -1.498399,-3.47925 -0.205759,-5.415 1.360461,-2.0373 3.516223,-4.0247 5.675495,-5.23223 1.71846,-0.96102 5.151197,-1.98626 6.650433,-1.98626 0.648985,0 1.055124,-0.22644 1.677469,-0.93525 0.451637,-0.51439 0.821158,-0.98614 0.821158,-1.04833 0,-0.0622 -0.665074,-0.85845 -1.477942,-1.76945 -1.418763,-1.59004 -3.813724,-5.91915 -3.813724,-6.89365 0,-0.2397 -0.21923,-0.5914 -0.487178,-0.78155 -0.737427,-0.52333 -1.043897,-1.26988 -1.242719,-3.02723 -0.181762,-1.60656 0.236607,-3.08254 0.940236,-3.31709 0.195657,-0.0652 0.185527,-1.21852 -0.03368,-3.83486 -0.388381,-4.63548 -0.229499,-5.05802 2.38627,-6.34614 2.031198,-1.00026 4.518433,-1.4152 8.482901,-1.4152 5.147387,0 9.002152,0.83863 10.324449,2.24615 l 0.613691,0.65324 -0.269711,4.1727 -0.269711,4.1727 0.625644,0.7479 c 1.067343,1.27593 0.725707,4.88565 -0.55037,5.81521 -0.37184,0.27086 -0.676071,0.66473 -0.676071,0.87526 0,0.62506 -1.308852,3.54578 -2.233184,4.9834 -0.472649,0.73511 -1.354167,1.82857 -1.958925,2.42991 -0.604755,0.60135 -1.095796,1.19666 -1.091197,1.32292 0.0046,0.12626 0.311663,0.57456 0.682365,0.99623 0.573448,0.65228 0.996543,0.81553 2.83591,1.09423 3.943364,0.59748 6.480694,1.89664 9.347359,4.78602 2.185326,2.20263 3.103732,3.78248 2.86216,4.92349 -0.727327,3.43539 -4.282276,7.83307 -7.732657,9.56575 -3.298881,1.6566 -4.020683,1.75391 -12.755441,1.71961 -4.298671,-0.0169 -8.05389,-0.0881 -8.344933,-0.15832 z m 11.821702,-1.72922 c 0.04993,-0.35153 0.420325,-0.76317 0.904545,-1.00524 l 0.819994,-0.40993 -0.763077,-0.91299 C 38.219,281.3823 37.375672,278.70017 37.375672,276.7963 v -1.45812 l -1.059095,0.95682 c -0.582504,0.52626 -1.270553,0.95683 -1.528998,0.95683 -0.258445,0 -1.23693,-0.7739 -2.174407,-1.71979 -0.937477,-0.94588 -1.797241,-1.71979 -1.910586,-1.71979 -0.113344,0 -0.20608,0.56667 -0.20608,1.25927 0,0.96602 0.121291,1.33502 0.520843,1.58455 0.286464,0.1789 0.710011,0.69108 0.941215,1.13818 0.525351,1.01591 0.161941,2.35735 -0.855435,3.15761 -2.082694,1.63825 -4.869308,-0.81028 -3.740844,-3.28699 0.167949,-0.36861 0.584668,-0.85321 0.926041,-1.07688 0.563158,-0.369 0.62068,-0.59748 0.62068,-2.46535 0,-2.00541 -0.02396,-2.08189 -0.926042,-2.95622 -0.833287,-0.80766 -1.240189,-1.84567 -0.727604,-1.85614 0.10914,-0.002 0.355659,-0.10374 0.547818,-0.22558 0.266192,-0.16878 0.147063,-0.42384 -0.500327,-1.07123 -0.752471,-0.75248 -0.964754,-0.83027 -1.855053,-0.67986 -1.47296,0.24886 -4.401544,1.74168 -6.0236,3.07049 -0.778259,0.63755 -1.938599,1.85491 -2.578534,2.70523 -1.350226,1.79412 -1.345947,1.96251 0.121883,4.7956 1.190192,2.29722 3.343563,4.51739 5.600407,5.77414 2.758011,1.53583 3.917843,1.73778 10.092962,1.75743 l 5.471703,0.0174 z m 3.921006,0.36313 c 0,-0.85235 -1.458023,-0.9583 -2.12517,-0.15444 -0.273571,0.32963 -0.140579,0.38663 0.90215,0.38663 0.67266,0 1.22302,-0.10449 1.22302,-0.23219 z m 5.027084,-1.56318 c 2.27367,-1.25122 4.419949,-3.4548 5.59585,-5.74526 1.458545,-2.841 1.460301,-2.96978 0.06604,-4.84602 -1.931492,-2.59919 -5.953064,-5.29479 -8.555201,-5.73442 -0.832784,-0.1407 -1.115248,-0.0525 -1.824154,0.56955 -0.980527,0.8604 -1.025173,1.03689 -0.309621,1.22401 0.62643,0.16382 0.702911,1.03727 0.132292,1.51084 -0.218281,0.18116 -0.396875,0.71157 -0.396875,1.17869 0,0.68568 0.187169,0.97256 0.971447,1.48896 1.575422,1.03733 2.064102,1.90213 2.051058,3.6297 -0.0155,2.05345 -0.749067,4.3536 -1.753164,5.4972 -0.677217,0.77131 -0.762593,0.9937 -0.455972,1.18776 0.207491,0.13131 0.521896,0.24058 0.698677,0.24281 0.176781,0.002 0.451922,0.24789 0.611426,0.54593 0.354705,0.66278 0.787527,0.56035 3.168195,-0.74975 z m -4.640514,-2.55482 c 0.729996,-1.18407 0.798499,-1.4864 0.743738,-3.28239 -0.04944,-1.62172 -0.165034,-2.08967 -0.641432,-2.59677 -0.794096,-0.84528 -2.152211,-0.83137 -3.014443,0.0309 -0.567478,0.56748 -0.649433,0.88633 -0.649433,2.52668 0,1.95225 0.365064,3.03446 1.408354,4.17498 0.766741,0.83821 1.221443,0.658 2.153216,-0.85336 z m -10.989686,-9.44865 c -1.16064,-2.27847 -1.265012,-2.37792 -1.99411,-1.9002 l -0.642805,0.42118 1.526786,1.39308 c 0.839733,0.76619 1.564858,1.35774 1.61139,1.31456 0.04653,-0.0432 -0.179036,-0.59606 -0.501261,-1.22862 z m 8.977109,-1.36021 c 0.120388,-0.28282 -0.815081,-0.97478 -1.088975,-0.80551 -0.223401,0.13807 -1.782934,3.13437 -1.782934,3.42551 0,0.20299 2.730642,-2.28814 2.871909,-2.62 z m -7.839329,-0.78088 c -0.395854,-1.10083 -0.983157,-1.74561 -1.30074,-1.42802 -0.05885,0.0589 0.22079,0.77536 0.62143,1.59225 0.85771,1.74884 1.326494,1.6355 0.67931,-0.16423 z m 5.057177,0.1657 c 0.75439,-1.53817 0.778195,-1.80167 0.140666,-1.55703 -0.308753,0.11848 -1.288757,2.30914 -1.288757,2.88083 0,0.55572 0.520801,-0.0448 1.148091,-1.3238 z m -8.413253,-2.19984 c -0.09592,-0.1552 -0.301015,-0.28218 -0.455766,-0.28218 -0.175444,0 -0.155372,0.15181 0.05332,0.40327 0.362887,0.43725 0.687211,0.33967 0.402448,-0.12109 z m 11.498496,-0.0488 c 0,-0.14552 -0.119063,-0.191 -0.264584,-0.10106 -0.145521,0.0899 -0.264583,0.28258 -0.264583,0.4281 0,0.14552 0.119062,0.191 0.264583,0.10106 0.145521,-0.0899 0.264584,-0.28258 0.264584,-0.4281 z m -6.879167,-0.48258 c 0,-0.22696 -2.731631,-1.60286 -3.182232,-1.60286 -0.141544,0 -0.25697,0.14883 -0.256504,0.33073 4.76e-4,0.1819 0.676001,0.65239 1.50119,1.04553 1.412017,0.67272 1.937546,0.73418 1.937546,0.2266 z m 5.291667,-1.34208 c 0,-0.43657 -0.744469,-0.29466 -2.125462,0.40514 -1.26211,0.63956 -1.50546,0.90663 -1.149995,1.2621 0.219892,0.21989 3.275457,-1.33542 3.275457,-1.66724 z m -3.96875,-0.26078 c 0,-0.14552 -0.245153,-0.26458 -0.544783,-0.26458 -0.29963,0 -0.471196,0.11906 -0.381259,0.26458 0.08994,0.14552 0.335089,0.26459 0.544782,0.26459 0.209693,0 0.38126,-0.11907 0.38126,-0.26459 z m 2.254363,-2.35439 c 2.404174,-1.37904 4.374185,-3.97716 5.61371,-7.40355 0.348475,-0.96329 0.909812,-2.04909 1.247415,-2.41289 0.415729,-0.44799 0.670073,-1.13394 0.78813,-2.12553 0.159602,-1.34053 0.117494,-1.51745 -0.499028,-2.09664 -0.370337,-0.34791 -0.67334,-0.77767 -0.67334,-0.95502 0,-0.17734 -0.20836,-0.40302 -0.463021,-0.50151 -1.030613,-0.39856 -7.053535,-0.70742 -10.781771,-0.55289 -4.54151,0.18824 -6.711141,0.53894 -6.934456,1.12089 -0.08464,0.22057 -0.418778,0.66592 -0.742526,0.98967 -0.821166,0.82117 -0.653432,3.19699 0.281654,3.98942 0.357156,0.30267 0.855912,1.26693 1.163253,2.24896 1.487149,4.75178 5.207055,8.47022 8.466836,8.4635 0.840282,-0.002 1.60673,-0.23302 2.533144,-0.76441 z m -10.356165,-10.1472 c -0.839475,-0.95898 -1.247478,-2.44661 -0.868397,-3.16628 0.492819,-0.9356 0.708069,-0.99253 3.769091,-0.99686 2.471833,-0.003 2.961748,0.0692 3.541411,0.52512 0.369998,0.29104 0.938268,0.52917 1.262822,0.52917 0.324553,0 0.892823,-0.23813 1.262821,-0.52917 0.580893,-0.45693 1.073357,-0.52917 3.607557,-0.52917 2.582053,0 2.998438,0.0636 3.463997,0.52917 0.617127,0.61713 0.632031,0.76814 0.218937,2.21826 -0.538514,1.89039 -0.764561,2.01507 -3.653406,2.01507 -2.315639,0 -2.610469,-0.0566 -3.103584,-0.59531 -0.299683,-0.32742 -0.626118,-0.8632 -0.725408,-1.19062 -0.141523,-0.46668 -0.376775,-0.59532 -1.088745,-0.59532 -0.6506,0 -0.908211,0.11835 -0.908211,0.41723 0,0.22948 -0.348028,0.76526 -0.773398,1.19063 -0.738976,0.73897 -0.878229,0.77339 -3.128879,0.77339 -2.111925,0 -2.409366,-0.0616 -2.876608,-0.59531 z m 5.455968,-1.52135 v -1.32292 h -2.52009 c -2.444645,0 -2.527619,0.0198 -2.771576,0.66146 -0.158926,0.418 -0.158926,0.90491 0,1.32291 0.243957,0.64166 0.326931,0.66146 2.771576,0.66146 h 2.52009 z m 9.811004,0.7201 c 0.18945,-0.4158 0.189722,-0.82621 7.94e-4,-1.32292 -0.271449,-0.71418 -0.294415,-0.7201 -2.793791,-0.7201 h -2.52009 v 1.14653 c 0,0.63059 0.07937,1.2259 0.17639,1.32291 0.09701,0.097 1.230659,0.17639 2.519214,0.17639 2.181474,0 2.36174,-0.0415 2.617483,-0.60281 z m -8.704164,-8.71493 c -0.189855,-0.18985 -0.31309,-0.20548 -0.31309,-0.0397 0,0.35316 0.312899,0.66606 0.489479,0.48948 0.07519,-0.0752 -0.0042,-0.27759 -0.176389,-0.44979 z m 2.597327,0.174 c 0,-0.22687 -0.119063,-0.3389 -0.264583,-0.24896 -0.145521,0.0899 -0.264584,0.27555 -0.264584,0.41248 0,0.13694 0.119063,0.24897 0.264584,0.24897 0.14552,0 0.264583,-0.18562 0.264583,-0.41249 z m -2.513542,-2.49792 c 0.08994,-0.14552 0.03743,-0.26459 -0.116676,-0.26459 -0.154109,0 -0.280199,0.11907 -0.280199,0.26459 0,0.14552 0.0525,0.26458 0.116676,0.26458 0.06417,0 0.190262,-0.11906 0.280199,-0.26458 z m 2.508234,-0.13869 c -0.184076,-0.2218 -0.38917,-0.34878 -0.455766,-0.28219 -0.183485,0.18349 0.189323,0.68546 0.509085,0.68546 0.175445,0 0.155371,-0.15181 -0.05332,-0.40327 z"
         id="path93"
         inkscape:connector-curvature="0" />
      <path
         style="fill:#abb3e8;stroke-width:0.26458332;fill-opacity:1"
         d="m 27.314328,286.5106 c -4.944507,-0.77487 -9.35609,-3.93605 -11.47135,-8.21996 -1.515578,-3.06942 -1.521766,-3.59349 -0.06651,-5.63285 2.721385,-3.81368 7.817008,-6.78304 11.640165,-6.78304 1.143028,0 2.815286,-1.32132 2.815286,-2.22447 0,-0.3203 -0.42406,-0.99226 -0.942788,-1.49394 -1.375135,-1.32994 -2.645832,-3.35861 -3.581037,-5.71714 -0.452273,-1.1406 -1.125281,-2.39633 -1.495572,-2.79051 -0.56108,-0.59726 -0.694081,-1.04116 -0.798237,-2.66411 -0.117171,-1.82579 -0.08108,-1.99481 0.577737,-2.70568 0.386493,-0.41704 0.64585,-0.90644 0.576347,-1.08756 -0.0695,-0.18112 -0.210142,-1.94444 -0.312531,-3.9185 l -0.186162,-3.58919 0.932808,-0.87975 c 1.925241,-1.81574 6.907963,-2.71395 12.66646,-2.28332 5.058024,0.37825 8.484637,1.86108 8.082947,3.49781 -0.07946,0.32376 -0.22714,2.2093 -0.328181,4.19009 -0.178507,3.49945 -0.16691,3.61823 0.409569,4.19471 0.529278,0.52928 0.582674,0.80332 0.494964,2.54022 -0.08784,1.73944 -0.18479,2.03965 -0.909674,2.81675 -0.446249,0.47839 -0.961663,1.40558 -1.145366,2.06042 -0.534712,1.90609 -1.862772,4.17151 -3.512928,5.99239 -0.842889,0.93009 -1.531954,1.778 -1.531258,1.88424 7.94e-4,0.10624 0.411343,0.63965 0.912551,1.18535 0.772647,0.84124 1.078608,0.99219 2.011066,0.99219 3.901353,0 8.818586,2.76919 11.648691,6.56007 1.177182,1.57683 1.310775,1.88939 1.200296,2.80831 -0.06837,0.56871 -0.56833,1.93241 -1.111012,3.03046 -1.81387,3.67011 -5.878224,6.94954 -9.900356,7.98835 -1.46231,0.37768 -14.602378,0.57361 -16.675928,0.24866 z m 14.934496,-0.9527 c 0.608396,-0.23346 0.519763,-0.45925 -0.391613,-0.99761 -0.804235,-0.47508 -0.817782,-0.47325 -1.862084,0.25045 -1.090139,0.75547 -1.812751,0.62221 -1.469962,-0.27108 0.146063,-0.38064 0.357378,-0.50208 1.433745,-0.82398 0.220184,-0.0658 0.01783,-0.51455 -0.592891,-1.31462 -1.255146,-1.64434 -1.824837,-3.69996 -1.660795,-5.99268 l 0.129445,-1.80916 -1.276496,1.19402 c -0.702074,0.6567 -1.493152,1.19401 -1.75795,1.19401 -0.264797,0 -1.302723,-0.82761 -2.3065,-1.83914 -1.003776,-1.01153 -1.923317,-1.77841 -2.043424,-1.70418 -0.120107,0.0742 -0.218377,0.73125 -0.218377,1.46004 0,1.18079 0.104632,1.42375 0.960978,2.23138 0.864311,0.81515 0.945054,1.00632 0.802682,1.90047 -0.330028,2.07268 -2.576174,2.89034 -3.963117,1.44268 -1.003897,-1.04784 -0.971837,-2.34856 0.08279,-3.35896 0.762107,-0.73014 0.79375,-0.85166 0.79375,-3.04811 0,-2.1876 -0.03439,-2.3214 -0.786401,-3.05935 -0.916739,-0.89961 -1.019728,-1.5927 -0.271933,-1.83004 0.722749,-0.22939 0.672816,-0.41842 -0.380092,-1.43894 -0.899753,-0.87207 -0.922573,-0.87798 -2.182812,-0.56509 -2.01777,0.50098 -3.963818,1.49168 -5.799644,2.95249 -1.984234,1.57891 -3.808285,3.97959 -3.808285,5.01219 0,0.99595 1.622401,4.10752 2.932769,5.6247 1.107466,1.28224 3.574872,3.11904 4.927511,3.66816 2.801986,1.1375 3.744452,1.24481 11.101934,1.2641 3.953542,0.0104 7.376588,-0.0534 7.606771,-0.14175 z m 4.651848,-1.51094 c 2.372321,-1.16148 4.915797,-3.73573 6.171952,-6.24663 0.534487,-1.06838 0.971798,-2.2706 0.971798,-2.67161 0,-1.05686 -2.000491,-3.62971 -3.996706,-5.14022 -1.885082,-1.42641 -3.702047,-2.33647 -5.611222,-2.81049 -1.26024,-0.31289 -1.28306,-0.30698 -2.182813,0.56509 -1.052909,1.02052 -1.102841,1.20955 -0.380092,1.43894 0.623805,0.19799 0.695597,0.98771 0.132292,1.45521 -0.218282,0.18116 -0.396875,0.73002 -0.396875,1.2197 0,0.75231 0.165549,0.99484 1.067921,1.56448 1.368843,0.86411 2.104832,2.07736 2.106089,3.4718 0.0016,1.61466 -0.967875,4.47163 -1.863108,5.49124 -0.429954,0.48969 -0.781736,0.97012 -0.781736,1.06762 0,0.0975 0.352322,0.30009 0.782939,0.4502 0.430618,0.15012 0.856938,0.50609 0.947381,0.79105 0.19912,0.62737 0.608996,0.53999 3.03218,-0.64638 z m -4.381531,-2.51371 c 0.681638,-0.96985 0.815922,-1.43412 0.900768,-3.11431 0.114247,-2.26244 -0.223038,-3.3427 -1.179777,-3.77862 -1.013264,-0.46167 -1.856081,-0.35778 -2.652083,0.32691 -0.62553,0.53805 -0.742989,0.8683 -0.837663,2.35508 -0.06149,0.96571 0.03196,2.15973 0.211638,2.70417 0.401095,1.21533 1.790729,2.83244 2.34266,2.72615 0.22737,-0.0438 0.773875,-0.59251 1.214457,-1.21938 z m -12.551802,-2.69392 c 0,-0.14552 -0.178594,-0.26458 -0.396875,-0.26458 -0.218281,0 -0.396875,0.11906 -0.396875,0.26458 0,0.14552 0.178594,0.26459 0.396875,0.26459 0.218281,0 0.396875,-0.11907 0.396875,-0.26459 z m 1.046733,-8.55702 c -1.674439,-3.18798 -1.908834,-3.50174 -2.392644,-3.20272 -0.179582,0.11098 0.04398,0.52124 0.595313,1.09244 0.846062,0.87656 0.862011,0.9301 0.382348,1.28355 -0.275298,0.20286 -0.632485,0.42047 -0.79375,0.48357 -0.161265,0.0631 0.59976,0.94671 1.691167,1.96355 1.091406,1.01685 2.018202,1.761 2.059545,1.65367 0.04134,-0.10733 -0.652547,-1.58065 -1.541979,-3.27406 z m 9.344994,-0.60137 -0.734435,-0.59021 0.88289,-0.91671 c 0.55145,-0.57257 0.774933,-0.98342 0.595313,-1.09443 -0.158168,-0.0978 -0.410305,-0.10189 -0.560308,-0.009 -0.275717,0.17041 -3.21378,5.76281 -3.391104,6.45474 -0.05276,0.20589 0.812617,-0.44203 1.923071,-1.43983 l 2.019006,-1.81417 -0.734433,-0.59021 z m -0.133551,3.12241 c 0.06445,-0.19335 -0.05651,-0.25248 -0.314192,-0.1536 -0.230442,0.0884 -0.418984,0.27703 -0.418984,0.41911 0,0.34776 0.60134,0.13 0.733176,-0.26551 z m -7.443189,-3.57389 c -0.372256,-0.89094 -1.617243,-1.99482 -1.914526,-1.69753 -0.146025,0.14602 1.311149,3.21253 1.842451,3.8773 0.480557,0.60127 0.535815,-1.06989 0.07207,-2.17977 z m 5.278374,0.30265 c 0.51504,-1.02273 0.884647,-1.9113 0.821354,-1.97459 -0.0633,-0.0633 -0.421667,0.0246 -0.79638,0.19534 -0.761021,0.34674 -1.503752,1.91244 -1.503752,3.16994 0,1.1393 0.388858,0.77361 1.478778,-1.39069 z m -3.92911,-2.52009 c 0.129407,-0.39314 -3.019571,-2.02077 -3.530365,-1.82476 -0.726151,0.27865 -0.347212,0.85385 1.01976,1.54791 1.436722,0.72947 2.329217,0.82789 2.510605,0.27685 z m 3.887525,-0.28355 c 2.416665,-1.33607 1.656564,-2.14851 -0.904086,-0.96635 -1.095513,0.50577 -1.59144,0.88514 -1.59144,1.21742 0,0.70045 0.946711,0.6052 2.495526,-0.25107 z m -2.482387,-1.25739 c 0.429337,-0.22202 0.780344,-0.43038 0.780021,-0.46302 -2.65e-4,-0.0326 -0.714701,-0.0725 -1.5875,-0.0886 -0.872802,-0.0161 -1.58691,0.01 -1.58691,0.0577 0,0.0801 1.354243,0.86291 1.534493,0.887 0.04361,0.006 0.430559,-0.17106 0.859896,-0.39308 z m 1.492422,-1.96339 c 2.492544,-1.13162 5.001112,-4.23547 6.29879,-7.79348 0.39333,-1.07844 1.000916,-2.20927 1.35019,-2.51296 0.547838,-0.47634 0.635042,-0.78692 0.635042,-2.26168 0,-1.44208 -0.09736,-1.80688 -0.622371,-2.33189 -0.342305,-0.3423 -0.670219,-0.76591 -0.7287,-0.94135 -0.05848,-0.17544 -0.820208,-0.43588 -1.692732,-0.57875 -2.09721,-0.34341 -12.235661,-0.33267 -14.418697,0.0153 -1.494888,0.23826 -1.830944,0.40235 -2.569753,1.25477 -0.739209,0.85288 -0.851256,1.1777 -0.859896,2.49281 -0.0084,1.28432 0.102382,1.64309 0.735522,2.38125 0.410001,0.47801 1.020356,1.64301 1.356344,2.58889 0.765932,2.15628 1.584365,3.57322 2.97922,5.15786 2.422957,2.75262 5.080634,3.64448 7.537041,2.52925 z m -4.016031,-11.722 c -0.06194,-0.1819 -0.147497,-0.68792 -0.190132,-1.12448 l -0.07752,-0.79375 -2.504346,-0.0768 c -2.31251,-0.0709 -2.537737,-0.0326 -2.940258,0.50107 -0.444383,0.58914 -1.037688,0.4999 -1.037688,-0.15607 0,-0.19913 0.313713,-0.60882 0.69714,-0.91043 0.590914,-0.46481 1.069263,-0.54837 3.139319,-0.54837 2.041548,0 2.552538,0.0868 3.114905,0.52917 0.396264,0.3117 1.073356,0.52917 1.647595,0.52917 0.574238,0 1.251331,-0.21747 1.647594,-0.52917 0.558668,-0.43945 1.073357,-0.52917 3.035689,-0.52917 2.880225,0 3.90093,0.43151 3.911624,1.65365 0.0055,0.62577 -0.585353,0.58641 -0.992881,-0.0661 -0.289885,-0.46418 -0.61451,-0.52867 -2.64333,-0.52511 -2.667381,0.005 -3.074765,0.16508 -2.835934,1.11666 0.230661,0.91903 -0.375475,1.27169 -0.879925,0.51195 -0.569073,-0.85707 -2.095253,-0.80243 -2.433462,0.0871 -0.277334,0.72944 -0.486799,0.83466 -0.658387,0.33073 z m 1.187553,-7.99434 c 0,-0.4169 -1.004295,-1.07758 -1.25576,-0.82612 -0.177784,0.17779 0.703204,1.21369 1.032185,1.21369 0.122965,0 0.223575,-0.17441 0.223575,-0.38757 z m 2.230059,-0.0282 c 0.46287,-0.46287 0.546172,-0.90714 0.17009,-0.90714 -0.318201,0 -1.077232,0.75903 -1.077232,1.07723 0,0.37608 0.444275,0.29278 0.907142,-0.17009 z m -2.400067,-2.81268 c 0.155969,-0.24768 0.199229,-0.53468 0.09613,-0.63779 -0.209407,-0.2094 -1.249034,0.63645 -1.249034,1.01624 0,0.39033 0.843057,0.11359 1.152908,-0.37845 z m 2.815842,0.35905 c 0,-0.32898 -1.035902,-1.20997 -1.213684,-1.03219 -0.251465,0.25147 0.409221,1.25576 0.826117,1.25576 0.213161,0 0.387567,-0.10061 0.387567,-0.22357 z"
         id="path91"
         inkscape:connector-curvature="0" />
      <path
         style="fill:#abb3e8;stroke-width:0.26458332;fill-opacity:1"
         d="m 26.924631,286.32755 c -5.195007,-0.68989 -10.473204,-5.32662 -12.045831,-10.58188 -0.317546,-1.06114 -0.295111,-1.1667 0.516904,-2.43212 2.34572,-3.65549 6.869998,-6.59349 11.191857,-7.26783 2.456487,-0.38328 2.924482,-0.6222 3.536296,-1.80532 0.377211,-0.72944 0.352825,-0.7862 -1.046458,-2.43566 -1.778037,-2.09594 -2.694068,-3.6419 -3.464681,-5.84726 -0.328953,-0.94141 -0.864288,-1.9272 -1.189633,-2.19065 -0.349836,-0.28328 -0.684645,-0.96156 -0.81941,-1.66002 -0.390307,-2.02288 -0.298736,-2.80338 0.430596,-3.67014 l 0.681515,-0.80994 -0.28464,-2.82819 c -0.443242,-4.40406 -0.411505,-4.72353 0.575255,-5.79067 1.444685,-1.56238 4.015395,-2.28617 8.665105,-2.4397 5.336659,-0.17621 9.541729,0.54262 11.279309,1.92811 l 0.728697,0.58104 -0.28733,4.33198 -0.287332,4.33197 0.633328,0.75266 c 1.011801,1.20246 0.72445,4.25972 -0.499798,5.31757 -0.352544,0.30463 -0.789199,1.08966 -0.970341,1.7445 -0.530879,1.91917 -2.064901,4.60053 -3.606729,6.30431 -0.788455,0.87127 -1.433554,1.71009 -1.433554,1.86404 0,0.15394 0.369522,0.70077 0.821158,1.21515 0.65587,0.74699 1.015359,0.93604 1.785937,0.93916 4.194961,0.017 9.51238,3.14677 12.352539,7.27056 0.979977,1.42288 0.993516,1.47553 0.663257,2.57914 -1.037621,3.46736 -4.336399,7.44569 -7.5531,9.10905 -2.903045,1.50116 -4.245147,1.6793 -12.320029,1.6352 -3.992525,-0.0218 -7.616325,-0.0871 -8.052887,-0.14506 z m 15.861905,-0.85245 c 0.182142,-0.29471 -1.093978,-1.3441 -1.6345,-1.3441 -0.212085,0 -0.688335,0.23812 -1.058334,0.52917 -0.844859,0.66456 -1.732586,0.70618 -1.611135,0.0755 0.04805,-0.2495 0.473499,-0.56438 0.945444,-0.69973 0.995939,-0.28563 1.081667,-0.67893 0.301823,-1.38468 -1.68874,-1.52829 -2.581682,-5.56159 -1.698998,-7.67415 l 0.390581,-0.93479 -0.985893,0.78467 c -0.542243,0.43156 -1.274538,1.09417 -1.627325,1.47245 -0.352791,0.37829 -0.750435,0.68779 -0.883661,0.68779 -0.133226,0 -1.165246,-0.83344 -2.293379,-1.85208 -1.128133,-1.01865 -2.12947,-1.85209 -2.225194,-1.85209 -0.09572,0 -0.174043,0.6921 -0.174043,1.538 0,1.36351 0.09005,1.62428 0.79375,2.29846 1.580563,1.51428 0.676238,3.94229 -1.468322,3.94229 -1.160695,0 -1.935132,-0.73651 -2.146956,-2.04183 -0.142272,-0.87672 -0.05895,-1.07246 0.802217,-1.88465 0.950547,-0.89648 0.960978,-0.92948 0.960978,-3.03999 0,-2.08894 -0.02053,-2.15639 -0.97928,-3.21761 l -0.97928,-1.08395 0.632345,-0.47698 0.632344,-0.47698 -0.777544,-0.93428 c -0.952742,-1.14479 -1.588024,-1.19776 -3.974705,-0.33144 -2.237027,0.81199 -4.218166,2.17441 -6.069203,4.17375 -2.210468,2.38757 -2.363223,2.79391 -1.728851,4.59881 1.43608,4.08591 5.004019,7.40414 9.540007,8.87234 1.256895,0.40683 2.525776,0.47296 9.310947,0.48525 4.512874,0.008 7.919752,-0.0893 8.006167,-0.22917 z m 3.808577,-1.20996 c 3.221733,-1.54397 6.418101,-5.14825 7.437091,-8.38617 0.389662,-1.23819 0.04577,-1.95792 -1.982023,-4.14818 -1.784522,-1.9275 -3.917688,-3.38146 -6.149742,-4.19165 -2.286971,-0.83012 -2.933359,-0.76905 -3.878353,0.36642 l -0.777544,0.93428 0.618718,0.4667 c 0.589356,0.44455 0.598003,0.49627 0.182229,1.08987 -0.240065,0.34274 -0.436483,1.06734 -0.436483,1.61021 0,0.86902 0.11136,1.0399 0.931251,1.42896 2.007108,0.95244 2.600346,2.95869 1.734526,5.86595 -0.300855,1.01022 -0.904671,2.33049 -1.34181,2.93395 -0.964081,1.33087 -0.979998,1.52709 -0.140978,1.73767 0.3596,0.0903 0.780507,0.40082 0.935349,0.69014 0.379429,0.70897 0.63027,0.67414 2.867769,-0.39815 z m -4.249039,-2.39798 c 1.072398,-1.30101 1.414346,-2.61775 1.203552,-4.63453 -0.218352,-2.08908 -0.887296,-2.8954 -2.391616,-2.8828 -1.792716,0.015 -2.459421,0.97163 -2.459421,3.52884 0,1.93034 0.265454,2.81393 1.222243,4.06835 0.845089,1.10796 1.462902,1.08762 2.425242,-0.0799 z m -13.630751,-2.23408 c -0.249198,-0.29104 -0.490346,-0.52916 -0.535886,-0.52916 -0.04554,0 0.04464,0.23812 0.200402,0.52916 0.155761,0.29104 0.396909,0.52917 0.535886,0.52917 0.138977,0 0.0488,-0.23813 -0.200402,-0.52917 z m 2.079515,0.0661 c 0.329107,-0.41965 0.319749,-0.429 -0.0999,-0.0999 -0.254661,0.19972 -0.463021,0.40808 -0.463021,0.46302 0,0.21777 0.217272,0.0776 0.562916,-0.36312 z m -0.680959,-0.61837 c 0.272658,-0.44117 -0.340574,-0.94708 -0.70557,-0.58208 -0.305309,0.30531 -0.114226,0.86972 0.294447,0.86972 0.128344,0 0.313349,-0.12944 0.411123,-0.28764 z m -1.048585,-1.49635 c -0.183488,-0.18349 -0.685455,0.18932 -0.685455,0.50908 0,0.17545 0.151813,0.15538 0.403269,-0.0533 0.221798,-0.18408 0.348782,-0.38917 0.282186,-0.45577 z m 1.960378,0.62576 c 0,-0.0549 -0.208359,-0.2633 -0.463021,-0.46302 -0.419644,-0.32911 -0.429002,-0.31975 -0.09989,0.0999 0.345643,0.44073 0.562915,0.58088 0.562915,0.36312 z m 0.14638,-7.80949 c -1.64261,-3.278 -2.204978,-3.93923 -2.686986,-3.15932 -0.110643,0.17902 0.104771,0.54388 0.513552,0.86983 0.834833,0.66567 0.912528,1.35141 0.174971,1.54429 -0.291042,0.0761 -0.529167,0.24847 -0.529167,0.38302 0,0.3389 3.95282,4.14236 4.125529,3.96965 0.07687,-0.0769 -0.642181,-1.70023 -1.597899,-3.60747 z m 8.386433,1.31303 c 0.836745,-0.80128 1.521354,-1.54187 1.521354,-1.64576 0,-0.10389 -0.238125,-0.26447 -0.529167,-0.35684 -0.729983,-0.23169 -0.662051,-0.83712 0.174689,-1.55686 0.705334,-0.6067 0.677095,-1.22127 -0.05612,-1.22127 -0.317424,0 -3.822737,6.4634 -3.822737,7.04869 0,0.22931 0.822182,-0.45825 2.711979,-2.26796 z m 0.890246,1.25558 c 0.08892,-0.14387 0.05219,-0.37105 -0.08161,-0.50485 -0.147979,-0.14798 -0.543793,0.0704 -1.010431,0.55746 l -0.767157,0.80074 0.848762,-0.29588 c 0.466818,-0.16273 0.921512,-0.41359 1.010431,-0.55747 z m -7.416633,-3.29862 c -0.332828,-1.05585 -0.640893,-1.51597 -1.213131,-1.81188 -1.39848,-0.72318 -1.39495,-0.53301 0.03946,2.12629 0.920422,1.7064 1.139455,1.95914 1.358564,1.56761 0.18351,-0.32791 0.128503,-0.88782 -0.184893,-1.88202 z m 5.006527,-0.0331 c 0.548842,-1.05911 0.91511,-2.00844 0.813928,-2.10962 -0.101182,-0.10118 -0.502071,-0.005 -0.890866,0.2128 -0.841409,0.47228 -1.756172,2.67945 -1.512638,3.64976 0.201734,0.80378 0.348559,0.64187 1.589576,-1.75294 z m -4.155453,-2.22831 c 0.57616,-0.57616 0.335095,-0.89971 -1.226381,-1.64602 -1.613963,-0.77141 -2.497931,-0.81994 -2.628048,-0.1443 -0.05002,0.25976 0.504586,0.69304 1.58446,1.23785 1.942576,0.98005 1.862003,0.96044 2.269969,0.55247 z m 3.877495,-0.50967 c 1.696112,-0.81018 2.150235,-1.41007 1.311191,-1.73204 -0.406202,-0.15587 -3.450286,1.12829 -3.723849,1.57092 -0.118237,0.19132 0.359947,0.98829 0.592971,0.98829 0.04841,0 0.867267,-0.37222 1.819687,-0.82717 z m -1.69737,-1.55945 c 0.576286,-0.294 1.047792,-0.56754 1.047792,-0.60786 0,-0.0403 -0.748419,-0.0257 -1.663152,0.0326 -1.140667,0.0726 -1.984627,-0.0284 -2.686458,-0.32166 -1.513127,-0.63223 -1.427126,-0.33444 0.170564,0.59059 1.683853,0.97491 1.79869,0.98615 3.131254,0.30633 z m 1.162695,-1.83981 c 2.46987,-1.19913 4.717063,-3.97165 6.117461,-7.54753 0.398925,-1.01864 0.99324,-2.14973 1.320704,-2.51354 0.415817,-0.46196 0.650844,-1.15707 0.779272,-2.30477 0.172691,-1.54328 0.142111,-1.68203 -0.502354,-2.2793 -0.37743,-0.34979 -0.686236,-0.76697 -0.686236,-0.92706 0,-0.60792 -1.240166,-0.89774 -4.972653,-1.16209 -2.667757,-0.18893 -5.16485,-0.18756 -8.106453,0.004 -4.25803,0.27797 -5.706311,0.56775 -5.706311,1.14176 0,0.16882 -0.31003,0.59426 -0.688956,0.94544 -0.493223,0.45711 -0.644587,0.80398 -0.53278,1.22097 0.0859,0.32035 0.157803,1.03463 0.15979,1.58728 0.0026,0.7301 0.185232,1.17314 0.667907,1.62047 0.365362,0.3386 0.895767,1.28843 1.178678,2.11072 1.734358,5.041 5.265881,8.58175 8.590681,8.61313 0.782855,0.007 1.736193,-0.19678 2.38125,-0.50995 z m -4.178448,-11.91315 c -0.07911,-0.21828 -0.179446,-0.69453 -0.222959,-1.05833 -0.07736,-0.6467 -0.134594,-0.66317 -2.564506,-0.73804 -2.258889,-0.0696 -2.542203,-0.0232 -3.108854,0.50914 l -0.623469,0.58572 v -0.65466 c 0,-1.12831 0.432505,-1.28966 3.456818,-1.28966 2.421189,0 2.91733,0.0751 3.494545,0.52916 0.369999,0.29104 0.992354,0.52917 1.383012,0.52917 0.390657,0 1.013012,-0.23813 1.383011,-0.52917 0.578773,-0.45526 1.073356,-0.52916 3.541363,-0.52916 2.783309,0 2.881792,0.0201 3.310941,0.67504 0.575683,0.8786 0.09872,1.51146 -0.497544,0.66018 -0.362572,-0.51765 -0.597226,-0.55552 -3.007183,-0.48532 l -2.613922,0.0761 -0.08651,0.79375 c -0.112766,1.03471 -0.475435,1.39182 -0.698791,0.68809 -0.258662,-0.81497 -2.035083,-0.78795 -2.597492,0.0395 -0.32299,0.47521 -0.433641,0.51525 -0.548465,0.19844 z m 3.446253,-7.82532 c 0.576808,-0.57681 0.659416,-0.84675 0.537435,-1.7562 -0.155456,-1.159 -0.513966,-1.63928 -1.427972,-1.913 -0.563112,-0.16863 -0.569333,-0.14926 -0.193855,0.60341 0.213363,0.42769 0.623994,0.83935 0.912517,0.9148 0.724259,0.1894 0.658108,0.93098 -0.114451,1.28298 -0.351468,0.16014 -0.697508,0.51478 -0.76898,0.78808 -0.07147,0.27331 -0.330832,0.49692 -0.57636,0.49692 -0.245528,0 -0.504892,-0.22361 -0.576361,-0.49692 -0.07147,-0.2733 -0.423114,-0.63049 -0.781431,-0.79375 -0.854644,-0.3894 -0.864912,-0.38588 -0.70113,0.24043 0.364567,1.39411 2.554047,1.76979 3.690588,0.63325 z m -2.820029,-2.22885 c 0.12296,0 0.396092,-0.34584 0.606957,-0.76853 l 0.383394,-0.76853 -0.724421,0.25253 c -0.398431,0.1389 -0.863836,0.55852 -1.03423,0.9325 -0.268679,0.58968 -0.253087,0.65819 0.117462,0.51599 0.235,-0.0902 0.527875,-0.16396 0.650838,-0.16396 z"
         id="path89"
         inkscape:connector-curvature="0" />
      <path
         style="fill:#abb3e8;stroke-width:0.26458332;fill-opacity:1"
         d="m 28.115256,286.24767 c -0.261851,-0.16922 1.954801,-0.25786 6.515364,-0.26054 8.925864,-0.005 9.566011,-0.13518 7.514172,-1.5254 -1.093028,-0.74058 -1.117211,-0.73981 -2.075034,0.0661 -0.918734,0.77307 -1.446337,0.85228 -1.321721,0.19844 0.04854,-0.25466 0.346279,-0.49993 0.661646,-0.54505 1.132941,-0.16208 1.198465,-0.68222 0.242787,-1.92733 -0.492072,-0.6411 -0.97132,-1.46329 -1.064993,-1.8271 -0.126196,-0.4901 -0.03798,-0.42156 0.340516,0.26459 0.661673,1.19948 1.764406,2.38125 2.222003,2.38125 0.548801,0 1.687782,-1.31615 2.289685,-2.64584 0.296424,-0.65484 0.541568,-1.03705 0.544764,-0.84935 0.0084,0.49532 -1.023831,2.47259 -1.64502,3.151 -0.669367,0.73101 -0.455224,1.33882 0.510725,1.44958 0.536665,0.0615 0.766728,0.25069 0.827778,0.68054 0.116012,0.81685 0.447591,0.76081 2.993668,-0.50597 2.900886,-1.44332 5.260284,-3.78279 6.647521,-6.59137 0.544439,-1.10226 0.989889,-2.30955 0.989889,-2.68287 0,-0.38778 -0.506971,-1.36743 -1.182585,-2.28519 -2.029761,-2.75723 -5.633251,-5.18814 -8.712083,-5.87716 l -1.41247,-0.31609 -0.953855,1.02646 c -1.008327,1.08508 -1.217943,1.68792 -0.586915,1.68792 0.647168,0 0.744186,0.5148 0.28098,1.49094 -0.563452,1.18738 -0.343091,2.09104 0.632994,2.59579 1.435185,0.74216 2.14435,1.88397 2.14435,3.45256 0,0.7773 -0.07201,1.60091 -0.160014,1.83026 -0.307764,0.80202 -0.633736,0.11183 -0.633736,-1.34183 0,-1.32481 -0.08989,-1.55594 -0.933063,-2.39911 -0.827911,-0.82791 -1.044086,-0.91539 -1.91823,-0.77623 -1.232257,0.19618 -2.17474,1.2224 -2.178703,2.37227 -0.0016,0.46483 -0.07904,1.30596 -0.17208,1.86919 -0.16656,1.00826 -0.174524,1.01438 -0.516879,0.39687 -0.894313,-1.61308 -0.191014,-4.06667 1.4654,-5.11232 1.035005,-0.65337 1.44654,-1.46797 0.741619,-1.46797 -0.185314,0 -1.286642,0.96076 -2.447396,2.13502 -1.160753,1.17426 -2.324862,2.25324 -2.58691,2.39774 -0.395222,0.21794 -0.834885,-0.0861 -2.578783,-1.78314 -1.156283,-1.12523 -2.158449,-1.98976 -2.227036,-1.92117 -0.06859,0.0686 -0.203295,0.79339 -0.29935,1.61067 -0.160461,1.36527 -0.118672,1.54193 0.514494,2.1751 0.762569,0.76257 1.230667,1.5317 1.230667,2.0221 0,0.17661 -0.27172,-0.0835 -0.603824,-0.57792 -0.785614,-1.16969 -2.2813,-1.40233 -2.942911,-0.45775 -0.614909,0.87791 -0.518065,1.69372 0.275125,2.31765 0.93125,0.73252 1.57723,0.69096 2.358202,-0.15173 0.356854,-0.38505 0.648825,-0.57228 0.648825,-0.41607 0,0.46611 -1.346088,1.38075 -2.032083,1.38075 -0.350792,0 -0.930048,-0.29225 -1.287235,-0.64943 -0.910204,-0.91021 -0.857153,-2.04844 0.144318,-3.09639 0.758128,-0.79331 0.79375,-0.93443 0.79375,-3.14461 0,-2.21387 -0.03489,-2.35138 -0.806204,-3.17707 -0.814787,-0.87223 -0.871926,-1.57417 -0.128142,-1.57417 0.6365,0 0.460082,-0.57436 -0.515718,-1.67903 l -0.898869,-1.01758 -1.312167,0.28141 c -2.043543,0.43826 -4.163918,1.48639 -6.06126,2.99615 -2.009128,1.59871 -4.035973,4.19761 -4.035973,5.17508 0,0.36891 0.42622,1.55689 0.947156,2.63996 1.708732,3.5526 5.667625,6.80546 9.437739,7.7546 1.406163,0.35401 1.738194,0.86104 0.396875,0.60605 -4.062186,-0.77223 -8.21367,-3.98131 -10.104485,-7.81072 -1.501706,-3.04137 -1.505544,-3.56479 -0.04118,-5.61691 2.405248,-3.37065 6.175015,-5.69938 10.356209,-6.39742 2.115252,-0.35314 2.461297,-0.49305 3.229041,-1.3055 1.074301,-1.13688 1.080385,-1.67056 0.03026,-2.65419 -1.33154,-1.24723 -3.359658,-4.53982 -3.926202,-6.37408 -0.324275,-1.04988 -0.788862,-1.9221 -1.222461,-2.29507 -0.603452,-0.51906 -0.718202,-0.86434 -0.836434,-2.51679 -0.124097,-1.73442 -0.07981,-1.9761 0.469145,-2.56044 0.601483,-0.64025 0.604027,-0.67347 0.328484,-4.28903 -0.377744,-4.95662 -0.172258,-5.39405 3.148864,-6.70311 4.363324,-1.71986 15.36186,-0.98388 17.378671,1.16291 0.587573,0.62545 0.588393,0.63998 0.276129,4.90708 -0.309311,4.22681 -0.306152,4.28727 0.255334,4.88495 0.442425,0.47094 0.568523,0.935 0.568523,2.09224 0,1.80958 -0.314677,2.71103 -1.09148,3.12677 l -0.587642,0.31449 0.574976,-0.73096 c 0.802675,-1.02044 0.846543,-4.19982 0.06373,-4.61877 -0.281186,-0.15048 -0.586023,-0.5092 -0.677413,-0.79715 -0.302848,-0.95419 -1.941301,-1.17692 -8.733213,-1.1872 -3.4925,-0.005 -7.058979,0.0913 -7.925508,0.21463 -1.380362,0.19647 -1.699886,0.36031 -2.579687,1.3228 -0.91277,0.99855 -1.00418,1.23375 -1.00418,2.58365 0,1.24559 0.12566,1.64321 0.779192,2.46557 0.428556,0.53927 0.921251,1.41885 1.094879,1.95461 1.393894,4.30119 4.633445,7.99279 7.744157,8.82478 1.032306,0.2761 1.423673,0.25463 2.701639,-0.14822 1.202735,-0.37912 1.869104,-0.84116 3.413708,-2.36697 1.788908,-1.76713 2.818087,-3.41857 3.984595,-6.39379 0.197776,-0.50444 0.212961,-0.50591 0.324893,-0.0315 0.19572,0.82955 -1.956096,4.79318 -3.518101,6.48033 -0.795454,0.85919 -1.443712,1.80894 -1.443712,2.11516 0,0.30567 0.327421,0.90431 0.727604,1.33029 0.623403,0.6636 1.077687,0.83095 3.172153,1.16853 3.400258,0.54805 5.933702,1.78577 8.747781,4.27375 0.334949,0.29613 1.15325,1.28842 1.818444,2.20508 1.444805,1.99098 1.43719,2.52318 -0.08006,5.59596 -1.95656,3.9625 -6.090016,7.02663 -10.549467,7.82032 -2.478212,0.44108 -14.308607,0.54443 -14.948958,0.13061 z m 5.027083,-12.06978 c 0,-0.31566 -3.240401,-6.58834 -3.635683,-7.03785 -0.311973,-0.35478 -0.514673,-0.39297 -0.92377,-0.17402 -0.503447,0.26943 -0.491709,0.3139 0.297885,1.12856 0.993666,1.0252 1.008455,1.16196 0.160526,1.48434 -0.920695,0.35005 -0.818547,0.80061 0.382971,1.68923 0.567557,0.41976 1.542033,1.28296 2.165501,1.91823 1.051425,1.07133 1.55257,1.39137 1.55257,0.99151 z m 5.956678,-1.84706 c 2.066261,-1.88093 2.563561,-2.75191 1.571255,-2.75191 -0.737092,0 -0.677188,-0.60694 0.143473,-1.45365 0.816274,-0.84219 0.829913,-0.89044 0.327631,-1.15925 -0.409036,-0.21891 -0.612278,-0.18071 -0.92574,0.17402 -0.373105,0.42221 -3.633714,6.7618 -3.633714,7.06502 0,0.34169 0.455144,0.003 2.517095,-1.87423 z m -5.692095,-1.1329 c 0,-1.49772 -0.754015,-3.06478 -1.726726,-3.58862 -0.507248,-0.27317 -1.00768,-0.41126 -1.11207,-0.30687 -0.165677,0.16567 0.946405,2.55879 2.007841,4.32073 0.445992,0.74032 0.830955,0.54332 0.830955,-0.42524 z m 4.763963,-1.45968 c 0.640874,-1.24071 1.079821,-2.34125 0.975434,-2.44563 -0.104386,-0.10439 -0.590867,0.002 -1.081074,0.23523 -0.685461,0.32687 -0.990187,0.7153 -1.319593,1.68205 -0.58828,1.72651 -0.542597,3.28023 0.08504,2.89233 0.09623,-0.0595 0.699318,-1.12326 1.340191,-2.36398 z m -3.970213,-2.40829 c 0.458367,-0.5523 0.08908,-0.9243 -1.826434,-1.83983 -1.321305,-0.63152 -1.6571,-0.70203 -1.997598,-0.41944 -0.716872,0.59495 -0.448831,1.03976 1.112053,1.84543 1.736304,0.89621 2.246974,0.97414 2.711979,0.41384 z m 3.835752,-0.41602 c 1.752269,-0.82791 2.042282,-1.23651 1.309375,-1.84476 -0.343834,-0.28536 -0.711935,-0.19568 -2.248958,0.54788 -1.844921,0.89252 -2.108898,1.20371 -1.520335,1.79227 0.438449,0.43845 0.516845,0.42266 2.459918,-0.49539 z m -1.328071,-1.75577 c 1.444953,-0.70867 2.016655,-1.3741 0.865757,-1.00769 -2.597277,0.82687 -3.374721,0.79179 -5.856936,-0.26435 -1.070062,-0.45529 -0.234601,0.54668 1.046305,1.25484 1.637044,0.90504 2.130214,0.9072 3.944874,0.0172 z m -0.981069,-20.73309 c 0.964962,-0.33639 1.669047,-1.6361 1.462391,-2.69951 -0.327403,-1.68478 -2.692082,-2.36554 -3.92707,-1.13055 -1.206754,1.20675 -0.700085,3.32737 0.938067,3.92621 0.588023,0.21495 0.644359,0.2114 1.526612,-0.0961 z m -1.747176,-1.19006 c -0.868117,-0.92556 -0.966407,-1.70194 -0.215474,-1.70194 0.205877,0 0.436591,-0.23812 0.512701,-0.52916 0.175996,-0.67301 0.989124,-0.69011 1.163193,-0.0245 0.07259,0.27758 0.359101,0.56409 0.636688,0.63668 0.552892,0.14459 0.71536,1.23986 0.183915,1.23986 -0.176432,0 -0.563385,0.29687 -0.859896,0.65971 l -0.539104,0.65971 z m -5.018186,36.34515 c -0.752395,-0.7524 -0.0164,-1.99119 0.99272,-1.67091 0.298025,0.0946 0.541864,0.2976 0.541864,0.45113 0,0.16948 -0.16115,0.14541 -0.410154,-0.0612 -0.338344,-0.2808 -0.484917,-0.26564 -0.837168,0.0866 -0.355126,0.35513 -0.368875,0.49707 -0.08167,0.84313 0.313932,0.37826 0.403877,0.37776 0.988823,-0.005 0.621721,-0.40737 0.633563,-0.4031 0.350222,0.12633 -0.325638,0.60845 -1.057448,0.71764 -1.544638,0.23045 z m 4.14995,-28.13249 c -0.01675,-0.14152 -0.0081,-0.47276 0.01931,-0.7361 0.103449,-0.99527 -0.469974,-1.241 -2.89598,-1.241 -1.939543,0 -2.425776,0.0886 -3.010312,0.54837 -0.558146,0.43904 -0.697139,0.46841 -0.697139,0.1473 0,-0.85636 1.081522,-1.22483 3.595065,-1.22483 2.018358,0 2.530404,0.0876 3.091715,0.52916 0.396264,0.3117 1.073356,0.52917 1.647595,0.52917 0.574238,0 1.251331,-0.21747 1.647594,-0.52917 0.561311,-0.44152 1.073357,-0.52916 3.091715,-0.52916 2.537097,0 3.595066,0.36837 3.595066,1.25175 0,0.35184 -0.108958,0.32563 -0.612365,-0.1473 -0.530892,-0.49875 -0.915607,-0.57529 -2.891518,-0.57529 -2.382864,0 -3.321613,0.39166 -2.992768,1.24862 0.256476,0.66837 -0.155006,0.93286 -0.557435,0.35832 -0.540536,-0.77173 -2.036006,-0.74894 -2.588204,0.0394 -0.226531,0.32343 -0.425588,0.47225 -0.442344,0.33073 z"
         id="path87"
         inkscape:connector-curvature="0" />
      <path
         style="fill:#abb3e8;stroke-width:0.26458332;fill-opacity:1"
         d="m 37.06148,286.06693 c 0.190994,-0.0764 0.419197,-0.067 0.507118,0.0209 0.08792,0.0879 -0.06835,0.15046 -0.347265,0.13897 -0.308226,-0.0127 -0.37092,-0.0754 -0.159853,-0.15985 z m 1.743977,-1.18332 c -0.09606,-0.15543 -0.01058,-0.38653 0.189963,-0.51356 0.524454,-0.33218 0.761502,-0.29186 0.761502,0.12952 0,0.46827 -0.719838,0.75882 -0.951465,0.38404 z m 3.718711,-0.24105 c -0.09592,-0.1552 -0.108083,-0.3485 -0.02703,-0.42956 0.217657,-0.21765 0.963946,0.12211 0.963946,0.43886 0,0.35911 -0.71361,0.35203 -0.936921,-0.009 z m -20.90678,-0.65845 c -0.49319,-0.39512 -0.489944,-0.40001 0.08172,-0.12298 0.327422,0.15867 0.595312,0.34383 0.595312,0.41147 0,0.20246 -0.137215,0.144 -0.677034,-0.28849 z m 26.341618,0.0737 c 0,-0.0505 0.386953,-0.37511 0.859895,-0.72134 0.532104,-0.38953 0.716902,-0.45342 0.484781,-0.1676 -0.352346,0.43386 -1.344676,1.08987 -1.344676,0.88894 z m -7.408334,-0.58823 c 0,-0.22048 0.235186,-0.39687 0.529167,-0.39687 0.293981,0 0.529167,0.17639 0.529167,0.39687 0,0.22049 -0.235186,0.39688 -0.529167,0.39688 -0.293981,0 -0.529167,-0.17639 -0.529167,-0.39688 z m 9.657292,-1.19062 c 0.26339,-0.29104 0.538422,-0.52917 0.611182,-0.52917 0.07276,0 -0.08321,0.23813 -0.346599,0.52917 -0.26339,0.29104 -0.538422,0.52916 -0.611182,0.52916 -0.07276,0 0.08321,-0.23812 0.346599,-0.52916 z m -31.885621,-0.99219 c -0.608649,-0.69122 -1.220653,-1.4949 -1.360009,-1.78594 -0.139355,-0.29104 0.02092,-0.17198 0.356167,0.26458 0.335247,0.43657 1.010518,1.24024 1.500602,1.78594 0.490083,0.54571 0.827794,0.99219 0.750468,0.99219 -0.07733,0 -0.638579,-0.56555 -1.247228,-1.25677 z m 33.340829,-0.59531 c 0.310859,-0.43657 0.624732,-0.79375 0.697492,-0.79375 0.07276,0 -0.122049,0.35718 -0.432908,0.79375 -0.310859,0.43656 -0.624732,0.79375 -0.697492,0.79375 -0.07276,0 0.122049,-0.35719 0.432908,-0.79375 z M 37.904839,276.9965 c 0,-1.38809 0.09896,-1.69101 0.821158,-2.51354 0.451639,-0.51439 0.983231,-0.93525 1.181317,-0.93525 0.198086,0 0.498483,-0.25847 0.667549,-0.57437 0.255818,-0.478 0.224089,-0.63618 -0.189129,-0.94283 -0.476668,-0.35373 -0.467429,-0.39373 0.231084,-1.00044 0.400182,-0.34759 0.727604,-0.81629 0.727604,-1.04155 0,-0.22526 0.178594,-0.40956 0.396875,-0.40956 0.493811,0 0.491503,0.24951 -0.0084,0.91046 -0.213654,0.28248 -0.388462,0.96467 -0.388462,1.51598 0,0.90246 0.105117,1.05601 1.054465,1.54033 1.423702,0.72632 1.978398,1.64648 1.98382,3.29088 0.0063,1.90146 -0.494639,1.94456 -0.662424,0.057 -0.113141,-1.27283 -0.269037,-1.66189 -0.874649,-2.18281 -1.920206,-1.65169 -4.411628,-0.082 -4.411628,2.77951 0,0.59647 -0.119063,1.08449 -0.264584,1.08449 -0.14682,0 -0.264583,-0.70249 -0.264583,-1.57829 z m -8.577147,-2.03073 c 0.06316,-1.11183 0.0047,-2.42041 -0.129913,-2.90795 -0.216949,-0.78572 -0.194653,-0.85886 0.196257,-0.64382 0.242556,0.13343 1.091788,0.90623 1.887181,1.71732 0.795393,0.8111 1.599065,1.47472 1.785938,1.47472 0.436189,0 0.427829,-0.12057 -0.07591,-1.0947 -0.375224,-0.72561 -0.37577,-0.83376 -0.0056,-1.11134 0.780537,-0.58527 0.43117,-3.31741 -0.571034,-4.46563 -0.367493,-0.42103 -0.336304,-0.43677 0.42999,-0.217 0.966163,0.27709 1.746006,-0.27628 1.533665,-1.08827 -0.09268,-0.35442 0.01622,-0.48973 0.39416,-0.48973 0.385879,0 0.482055,0.12657 0.368364,0.48478 -0.09417,0.2967 0.04464,0.66441 0.357799,0.94782 0.488381,0.44198 0.569806,0.43744 1.789678,-0.0998 l 1.278017,-0.56283 -0.834194,0.73949 c -1.393685,1.23547 -2.10053,4.817 -0.8881,4.49994 0.468124,-0.12242 0.467365,-0.0824 -0.02006,1.05465 -0.601054,1.40221 -0.601101,1.40261 -0.165944,1.40261 0.187373,0 0.924335,-0.59257 1.637694,-1.31682 0.713362,-0.72425 1.336821,-1.27702 1.385464,-1.22837 0.112739,0.11273 -4.364627,4.49765 -4.721328,4.62384 -0.146571,0.0519 -1.216107,-0.82984 -2.376747,-1.95931 -1.502286,-1.46195 -2.192033,-1.97181 -2.394098,-1.76975 -0.170356,0.17036 -0.241506,1.03307 -0.177956,2.15775 0.09223,1.63226 0.04759,1.87391 -0.346153,1.87391 -0.396907,0 -0.438032,-0.24655 -0.337197,-2.02152 z m 23.922922,-2.27796 c -1.410062,-1.79696 -1.524743,-1.97239 -1.045562,-1.59945 0.430072,0.33473 2.212713,2.72393 2.032384,2.72393 -0.05745,0 -0.501518,-0.50602 -0.986822,-1.12448 z M 16.674023,272.0925 c 0.989204,-1.29443 2.05511,-2.29337 3.106858,-2.91167 0.697231,-0.40989 0.681145,-0.37604 -0.132292,0.27837 -0.509323,0.40975 -1.568935,1.40799 -2.354694,2.21832 -1.090943,1.12504 -1.23747,1.22314 -0.619872,0.41498 z m 14.604105,-2.00704 c -0.162431,-0.3035 -0.245492,-0.60166 -0.18458,-0.66257 0.06091,-0.0609 0.2466,0.18741 0.41264,0.55182 0.364614,0.80025 0.187084,0.88646 -0.22806,0.11075 z m -3.522843,0.10367 c -0.29797,-0.29798 -0.181475,-0.61017 0.227679,-0.61017 0.218281,0 0.396875,0.11203 0.396875,0.24896 0,0.33364 -0.41317,0.57259 -0.624554,0.36121 z m 22.564944,-0.51978 -0.641432,-0.70336 0.859896,0.62082 c 0.894445,0.64577 1.008814,0.7859 0.641432,0.7859 -0.120152,0 -0.507106,-0.31651 -0.859896,-0.70336 z m -9.764911,-0.3465 c -0.328879,-0.20796 -0.275463,-0.36989 0.33073,-1.00262 0.397626,-0.41503 0.722958,-0.88889 0.722958,-1.05303 0,-0.5498 -1.06739,-0.67248 -1.60646,-0.18463 -0.295656,0.26757 -0.510207,0.33323 -0.510207,0.15614 0,-0.16807 -0.205087,-0.30559 -0.455748,-0.30559 -0.374618,0 -0.351067,-0.0733 0.132292,-0.41187 0.323422,-0.22654 0.588039,-0.58791 0.588039,-0.80306 0,-0.32405 0.102166,-0.33629 0.595313,-0.0713 0.327422,0.17591 0.9525,0.39588 1.389062,0.48881 1.007031,0.21438 0.942092,0.93672 -0.163285,1.8162 -0.552754,0.43979 -0.734867,0.769 -0.622043,1.12448 0.180983,0.57022 0.145666,0.59196 -0.400651,0.24652 z m -11.742576,-0.40383 c 0.08344,-0.21745 0.258299,-0.32948 0.388571,-0.24897 0.373572,0.23088 0.276222,0.64432 -0.151712,0.64432 -0.23603,0 -0.329014,-0.1552 -0.236859,-0.39535 z m 19.146264,-0.79527 c -0.363802,-0.20797 -0.535387,-0.38235 -0.381299,-0.3875 0.154088,-0.005 0.511275,0.16543 0.79375,0.37908 0.653251,0.4941 0.4446,0.49836 -0.412451,0.008 z m -20.153084,-0.46302 c -0.569386,-0.45877 -0.812896,-1.25847 -0.41381,-1.35897 0.179448,-0.0452 0.716793,-0.21028 1.1941,-0.36687 0.759116,-0.24904 0.948586,-0.20987 1.512473,0.31273 0.48672,0.45107 0.569923,0.67215 0.339636,0.90244 -0.230287,0.23029 -0.417918,0.20282 -0.765909,-0.11211 -0.623804,-0.56453 -1.65665,-0.24928 -1.473823,0.44985 0.155706,0.59542 0.140181,0.60226 -0.392667,0.17293 z m -5.246916,-0.19844 c 0.218281,-0.14107 0.515937,-0.25648 0.661458,-0.25648 0.145521,0 0.08599,0.11541 -0.132292,0.25648 -0.218281,0.14107 -0.515937,0.25648 -0.661458,0.25648 -0.145521,0 -0.08599,-0.11541 0.132292,-0.25648 z m 7.928228,-3.15768 c 0.184542,-0.34482 0.187841,-0.73827 0.01011,-1.20574 -0.203362,-0.53488 -0.188212,-0.65068 0.06611,-0.5053 0.866257,0.49521 1.001191,0.70165 0.69767,1.06737 -0.225262,0.27142 -0.217986,0.46088 0.02913,0.75864 0.278728,0.33585 0.221248,0.39688 -0.373788,0.39688 -0.613242,0 -0.668133,-0.0655 -0.429234,-0.51185 z m 7.861338,0.0883 c 0.0894,-0.23297 0.0309,-0.50494 -0.129988,-0.60437 -0.17617,-0.10888 0.413658,-0.80452 1.4828,-1.7488 l 1.77533,-1.568 -1.275813,1.38764 c -1.106734,1.20375 -1.252969,1.49165 -1.103455,2.17238 0.147285,0.67058 0.09353,0.78473 -0.369531,0.78473 -0.388157,0 -0.495773,-0.12017 -0.379343,-0.42358 z m -9.354085,-3.08215 c -0.294759,-0.32742 -0.630637,-0.77391 -0.746394,-0.99219 -0.223299,-0.42107 -0.162392,-0.36348 0.909434,0.8599 0.350609,0.40018 0.577939,0.7276 0.505178,0.7276 -0.07276,0 -0.373458,-0.26789 -0.668218,-0.59531 z M 24.37734,253.2409 c -0.329108,-0.41965 -0.319749,-0.42901 0.0999,-0.0999 0.254661,0.19972 0.463021,0.40808 0.463021,0.46302 0,0.21776 -0.217273,0.0776 -0.562916,-0.36312 z m -0.47453,-2.07257 c 0.0127,-0.30823 0.07539,-0.37092 0.159853,-0.15986 0.07643,0.191 0.06703,0.4192 -0.02089,0.50712 -0.08792,0.0879 -0.150453,-0.0684 -0.138964,-0.34726 z m 9.239529,-0.74925 c 0,-0.36169 -0.208359,-0.77898 -0.463021,-0.9273 -0.254661,-0.14833 -0.343958,-0.27272 -0.198437,-0.27642 0.14552,-0.004 0.615143,0.27376 1.043604,0.61659 l 0.779018,0.62332 -0.580581,0.31071 c -0.525338,0.28116 -0.580583,0.24815 -0.580583,-0.3469 z m 2.852962,0.26723 c -0.416459,-0.30736 -0.389786,-0.38303 0.320014,-0.90781 0.468013,-0.34602 1.118764,-0.55765 1.644957,-0.53495 0.832233,0.0359 0.824029,0.0446 -0.186169,0.19843 -0.881433,0.1342 -1.078987,0.2786 -1.190625,0.87027 -0.116591,0.61792 -0.192421,0.66615 -0.588177,0.37406 z m -8.972128,-1.01729 c 0.254167,-0.32409 0.690816,-0.44967 1.455209,-0.41854 l 1.092082,0.0445 -1.054978,0.10753 c -0.580239,0.0592 -1.235082,0.24749 -1.455209,0.41855 -0.349183,0.27134 -0.353916,0.25196 -0.0371,-0.15201 z m 15.374556,-0.0722 c -0.279607,-0.33691 -0.26324,-0.37562 0.0999,-0.23628 0.238863,0.0917 0.434297,0.27298 0.434297,0.40293 0,0.34025 -0.153159,0.29247 -0.534193,-0.16665 z m -18.515807,-0.23286 c 0,-0.0987 0.234355,-0.50199 0.520788,-0.89628 0.478113,-0.65814 0.500381,-0.92286 0.271752,-3.23043 -0.439355,-4.43446 -0.369491,-5.35807 0.464231,-6.13723 1.77421,-1.65809 4.63186,-2.32944 9.915477,-2.32944 5.097037,0 9.692564,1.02219 10.168216,2.26172 0.09215,0.24014 0.05463,2.30004 -0.08339,4.57756 -0.138015,2.27751 -0.155287,4.25404 -0.03838,4.39229 0.116904,0.13824 0.209349,0.37637 0.205436,0.52916 -0.0039,0.1528 -0.331338,-0.10843 -0.727604,-0.5805 -0.560898,-0.6682 -1.042816,-0.91899 -2.175695,-1.13227 -1.819191,-0.34248 -12.569303,-0.3497 -14.616406,-0.01 -1.868789,0.31027 -2.068542,0.42062 -3.088385,1.70607 -0.448824,0.56571 -0.816043,0.94784 -0.816043,0.84918 z m 12.753478,-5.4624 c 0.714478,-0.71448 0.789546,-0.93308 0.657773,-1.91552 -0.336791,-2.51097 -3.532519,-3.09045 -4.607809,-0.83554 -1.222182,2.56294 1.937525,4.76357 3.950036,2.75106 z m -2.170144,-0.38977 c 0,-0.22141 -0.297657,-0.53817 -0.661459,-0.70393 -0.803817,-0.36625 -0.858567,-0.89693 -0.112657,-1.09199 0.301842,-0.0789 0.613384,-0.39048 0.692317,-0.69232 0.195061,-0.74591 0.725747,-0.69116 1.091991,0.11266 0.165759,0.3638 0.482526,0.66146 0.703927,0.66146 0.583856,0 0.494426,0.72893 -0.113086,0.92174 -0.283596,0.09 -0.589277,0.39569 -0.679289,0.67929 -0.192815,0.60751 -0.921744,0.69694 -0.921744,0.11309 z m 6.548437,5.78356 c 0.181901,-0.0734 0.479557,-0.0734 0.661458,0 0.181901,0.0734 0.03307,0.13346 -0.330729,0.13346 -0.363802,0 -0.51263,-0.0601 -0.330729,-0.13346 z"
         id="path85"
         inkscape:connector-curvature="0" />
      <path
         style="fill:#abb3e8;stroke-width:0.26458332;fill-opacity:1"
         d="m 39.076149,284.52219 c 0.54374,-0.41136 0.84758,-0.34598 0.559361,0.12037 -0.09592,0.15521 -0.375735,0.2784 -0.621808,0.27378 -0.392813,-0.007 -0.385193,-0.0555 0.06245,-0.39415 z m 3.723482,0.13798 c -0.08994,-0.14552 0.02209,-0.26459 0.248967,-0.26459 0.22687,0 0.412491,0.11907 0.412491,0.26459 0,0.14552 -0.112035,0.26458 -0.248968,0.26458 -0.136932,0 -0.322553,-0.11906 -0.41249,-0.26458 z m -2.116667,-1.05834 c -0.08994,-0.14552 0.08163,-0.26458 0.381259,-0.26458 0.29963,0 0.544783,0.11906 0.544783,0.26458 0,0.14552 -0.171567,0.26459 -0.38126,0.26459 -0.209693,0 -0.454845,-0.11907 -0.544782,-0.26459 z m -2.774225,-6.54843 c 0.0051,-1.63484 0.415316,-2.39677 1.786202,-3.31746 1.097714,-0.73724 1.467789,-1.60526 0.789585,-1.852 -0.245136,-0.0892 -0.257362,-0.24488 -0.04724,-0.60161 0.539539,-0.91601 0.874364,-0.7159 0.958096,0.5726 0.07385,1.1365 0.172162,1.30237 1.068562,1.80292 1.341113,0.74889 1.847443,1.55916 1.888546,3.02222 0.04744,1.68878 -0.460729,1.70343 -0.637156,0.0184 -0.110699,-1.05729 -0.306531,-1.50328 -0.874652,-1.99195 -0.785707,-0.67584 -2.198685,-0.83875 -3.098411,-0.35723 -0.737145,0.39451 -1.308261,1.65588 -1.308261,2.88943 0,0.58931 -0.119063,1.07148 -0.264584,1.07148 -0.145521,0 -0.262829,-0.56555 -0.260683,-1.25677 z m -8.602858,-2.81688 c 0,-2.50319 0.04039,-2.72956 0.448285,-2.51229 0.650602,0.34655 0.844467,0.76881 0.507619,1.10566 -0.162426,0.16242 -0.294446,1.16045 -0.294446,2.2259 0,1.36869 -0.09636,1.93151 -0.330729,1.93163 -0.243389,1.3e-4 -0.330729,-0.72634 -0.330729,-2.7509 z m 4.518514,1.7139 c -0.406924,-0.42474 -0.659868,-0.90168 -0.562099,-1.05988 0.09777,-0.15819 0.03016,-0.69581 -0.150241,-1.19471 -0.229166,-0.63374 -0.245153,-1.01199 -0.05305,-1.25522 0.587481,-0.74388 0.615749,-1.78914 0.08608,-3.18272 -0.646716,-1.70153 -0.647417,-1.60338 0.0099,-1.39474 0.696609,0.2211 1.310228,-0.29162 1.310228,-1.09475 0,-0.34599 0.119062,-0.62907 0.264583,-0.62907 0.145521,0 0.264583,0.21968 0.264583,0.48816 0,0.71772 0.840473,1.37136 1.531112,1.19075 0.708017,-0.18515 0.704731,-0.27337 0.05365,1.43965 -0.529672,1.39358 -0.501404,2.43884 0.08608,3.18272 0.192101,0.24323 0.176115,0.62148 -0.05305,1.25522 -0.1804,0.4989 -0.248009,1.03652 -0.150241,1.19471 0.19626,0.31756 -1.126281,1.83213 -1.599834,1.83213 -0.16383,0 -0.630812,-0.34752 -1.037736,-0.77225 z m 7.644106,-5.85562 c -0.251409,-0.4068 0.09296,-0.66926 0.432552,-0.32967 0.190018,0.19002 0.194582,0.33801 0.01386,0.4497 -0.148146,0.0916 -0.349036,0.0375 -0.446424,-0.12003 z m -13.75012,-0.2513 c 0.08994,-0.14552 0.282584,-0.26458 0.428104,-0.26458 0.145521,0 0.190999,0.11906 0.101062,0.26458 -0.08994,0.14552 -0.282584,0.26458 -0.428105,0.26458 -0.14552,0 -0.190998,-0.11906 -0.101061,-0.26458 z m 1.190625,-0.94166 c 0,-0.22687 0.119062,-0.3389 0.264583,-0.24897 0.145521,0.0899 0.264583,0.27556 0.264583,0.4125 0,0.13693 -0.119062,0.24896 -0.264583,0.24896 -0.145521,0 -0.264583,-0.18562 -0.264583,-0.41249 z m 11.377083,0.14791 c 0,-0.14552 0.119062,-0.26458 0.264583,-0.26458 0.145521,0 0.264584,0.11906 0.264584,0.26458 0,0.14552 -0.119063,0.26458 -0.264584,0.26458 -0.145521,0 -0.264583,-0.11906 -0.264583,-0.26458 z m -12.673313,-1.68763 c -0.501671,-0.60448 -0.265223,-0.97088 0.880785,-1.36485 0.951083,-0.32697 1.054358,-0.31143 1.503291,0.22621 0.546133,0.65406 0.601223,0.88018 0.265049,1.08795 -0.129032,0.0798 -0.381736,-0.0323 -0.561563,-0.24897 -0.472454,-0.56927 -1.304326,-0.48378 -1.541907,0.15847 -0.181647,0.49104 -0.242283,0.50673 -0.545655,0.14119 z m 13.90484,-0.28556 c -0.186383,-0.48571 -0.99717,-0.53658 -1.443194,-0.0906 -0.243401,0.2434 -0.390138,0.24486 -0.628748,0.006 -0.238609,-0.23861 -0.204218,-0.42951 0.147355,-0.81799 0.387744,-0.42846 0.589134,-0.46411 1.303435,-0.23072 0.464659,0.15181 1.002461,0.31714 1.195118,0.3674 0.408858,0.10666 0.317587,0.92899 -0.119248,1.07442 -0.163973,0.0546 -0.368596,-0.0844 -0.454718,-0.3088 z m -10.915277,-3.45077 c 0,-0.97168 0.131418,-1.11212 0.601122,-0.64242 0.201774,0.20178 0.197956,0.46842 -0.01323,0.92398 -0.411738,0.88818 -0.587893,0.80382 -0.587893,-0.28156 z m 7.742997,0.35096 c -0.08271,-0.3163 -0.08957,-0.67348 -0.01524,-0.79375 0.275741,-0.44616 0.576442,-0.19536 0.68952,0.57508 0.136514,0.93014 -0.43938,1.11691 -0.674275,0.21867 z m -5.094719,-13.54729 c -0.221073,-0.57611 -0.06634,-0.73084 0.426339,-0.42634 0.302578,0.187 0.317227,0.30895 0.06716,0.55902 -0.250069,0.25007 -0.357725,0.22113 -0.493496,-0.13268 z m 2.721136,0.19484 c -0.211383,-0.21138 0.02757,-0.62455 0.361202,-0.62455 0.136932,0 0.248967,0.17859 0.248967,0.39687 0,0.40916 -0.312197,0.52565 -0.610169,0.22768 z m -11.115508,-3.8789 c -0.0869,-0.63401 -0.240096,-2.42255 -0.340434,-3.97454 l -0.182434,-2.82179 0.933251,-0.88017 c 1.577524,-1.4878 3.888748,-2.09034 8.578391,-2.23642 5.265992,-0.16402 9.572017,0.57345 10.973824,1.87943 0.535012,0.49844 0.55023,0.67144 0.368832,4.19222 -0.104066,2.01978 -0.286761,3.99609 -0.40599,4.39179 -0.119229,0.3957 -0.227012,0.58974 -0.239522,0.4312 -0.04616,-0.58515 -1.5138,-0.93335 -5.022871,-1.19171 -5.707401,-0.4202 -13.08588,0.0784 -14.048234,0.94932 -0.424742,0.38438 -0.467905,0.33248 -0.614813,-0.73933 z m 11.746029,-2.81071 c 0.572587,-0.57259 0.773398,-1.02442 0.773398,-1.74015 0,-1.19187 -1.178753,-2.51354 -2.241746,-2.51354 -0.898689,0 -2.165799,0.65968 -2.512911,1.30826 -0.865429,1.61707 0.401177,3.71882 2.241116,3.71882 0.715732,0 1.167558,-0.20081 1.740143,-0.77339 z m -2.137018,-0.40792 c 0,-0.21316 -0.267891,-0.52695 -0.595313,-0.6973 -0.327422,-0.17035 -0.636984,-0.3452 -0.687917,-0.38855 -0.05093,-0.0433 0.30684,-0.47825 0.79505,-0.96646 l 0.887653,-0.88766 0.884346,0.88837 c 0.486389,0.4886 0.842991,0.92351 0.792451,0.96646 -0.05054,0.043 -0.359786,0.21749 -0.687208,0.38784 -0.327422,0.17035 -0.595312,0.48414 -0.595312,0.6973 0,0.21316 -0.178594,0.38756 -0.396875,0.38756 -0.218282,0 -0.396875,-0.1744 -0.396875,-0.38756 z"
         id="path83"
         inkscape:connector-curvature="0" />
      <path
         style="fill:#abb3e8;stroke-width:0.26458332;fill-opacity:1"
         d="m 38.963172,284.66017 c 0,-0.14552 0.185621,-0.26459 0.412491,-0.26459 0.22687,0 0.338905,0.11907 0.248968,0.26459 -0.08994,0.14552 -0.275559,0.26458 -0.412491,0.26458 -0.136933,0 -0.248968,-0.11906 -0.248968,-0.26458 z m 3.836459,0 c -0.08994,-0.14552 -0.03743,-0.26459 0.116676,-0.26459 0.154109,0 0.280199,0.11907 0.280199,0.26459 0,0.14552 -0.0525,0.26458 -0.116676,0.26458 -0.06417,0 -0.190262,-0.11906 -0.280199,-0.26458 z m 1.239567,-7.23606 c -0.11566,-2.4065 -1.790472,-3.95134 -3.626755,-3.34532 -1.287314,0.42486 -1.978437,1.40711 -1.978437,2.81185 0,0.63522 -0.119063,1.15494 -0.264584,1.15494 -0.431834,0 -0.300342,-1.91258 0.198848,-2.89225 0.265306,-0.52067 0.885785,-1.12418 1.454798,-1.41501 0.719913,-0.36795 0.992188,-0.67723 0.992188,-1.12702 0,-0.34095 -0.124844,-0.69706 -0.277432,-0.79137 -0.189653,-0.11721 -0.179403,-0.28957 0.0324,-0.54478 0.52001,-0.62657 0.707705,-0.42425 0.677434,0.73021 -0.0159,0.60694 0.08864,1.1432 0.232352,1.19168 0.726033,0.24493 2.000948,1.19332 2.378242,1.76914 0.297995,0.4548 0.396475,1.07444 0.327903,2.06315 -0.07525,1.08503 -0.109373,1.17669 -0.146955,0.39478 z m -14.601026,-3.07439 c 0,-2.29552 0.05423,-2.61672 0.418192,-2.47705 0.275,0.10552 0.366833,0.35182 0.268196,0.7193 -0.0825,0.30735 -0.151621,1.42202 -0.153608,2.47705 -0.0021,1.10002 -0.116469,1.91823 -0.268196,1.91823 -0.158695,0 -0.264584,-1.05557 -0.264584,-2.63753 z m 4.604647,1.70998 c -0.39915,-0.39915 -0.619329,-0.85066 -0.52927,-1.08535 0.08481,-0.22103 -0.02154,-0.74175 -0.23636,-1.15715 -0.344403,-0.666 -0.344374,-0.84387 2.41e-4,-1.5046 0.496739,-0.95239 0.496006,-1.71298 -0.0028,-2.90678 -0.505767,-1.21047 -0.498686,-1.4144 0.04909,-1.4144 0.245282,0 0.711353,-0.24932 1.035714,-0.55404 l 0.589746,-0.55404 0.310623,0.58041 c 0.225301,0.42097 0.485881,0.5469 0.948661,0.45843 0.751763,-0.14371 0.799192,0.14808 0.241162,1.48364 -0.498805,1.1938 -0.499538,1.95439 -0.0028,2.90678 0.345993,0.66338 0.344567,0.83874 -0.01244,1.52912 -0.221792,0.4289 -0.333354,0.89293 -0.247917,1.03117 0.21884,0.35408 -0.311695,1.25564 -0.935299,1.58939 -0.429022,0.2296 -0.649687,0.15609 -1.208351,-0.40258 z m -6.402086,-9.11098 c 0.107122,-0.89096 1.542886,-1.28675 2.303948,-0.63511 0.679216,0.58157 0.423579,1.00956 -0.3002,0.5026 -0.569313,-0.39876 -1.38584,-0.18619 -1.871456,0.48721 -0.120297,0.16682 -0.176784,0.0154 -0.132292,-0.3547 z m 14.263548,0.35756 c -0.05183,-0.48677 -1.199722,-0.87723 -1.721123,-0.58543 -0.598146,0.33474 -0.862269,0.0762 -0.440862,-0.4316 0.222007,-0.26751 0.591188,-0.34247 1.162182,-0.23599 1.056431,0.197 1.315884,0.43251 1.156907,1.05016 -0.06953,0.27012 -0.140224,0.3614 -0.157104,0.20286 z m -3.582766,-3.78074 c -0.08198,-0.13265 0.02886,-0.30945 0.246301,-0.39289 0.217445,-0.0834 0.395356,-0.0434 0.395356,0.089 0,0.35865 -0.470191,0.58137 -0.641657,0.30393 z m -7.560426,-0.31224 c 0,-0.15411 0.119062,-0.20661 0.264583,-0.11667 0.145521,0.0899 0.264584,0.21602 0.264584,0.28019 0,0.0642 -0.119063,0.11668 -0.264584,0.11668 -0.145521,0 -0.264583,-0.12609 -0.264583,-0.2802 z m 2.645833,-12.96458 c 0,-0.15411 0.119063,-0.20662 0.264584,-0.11668 0.14552,0.0899 0.264583,0.21603 0.264583,0.2802 0,0.0642 -0.119063,0.11668 -0.264583,0.11668 -0.145521,0 -0.264584,-0.12609 -0.264584,-0.2802 z m -8.625673,-4.92097 c -0.370746,-3.68557 -0.295835,-5.52557 0.249528,-6.12902 0.655485,-0.7253 3.456098,-1.81897 5.512385,-2.15265 3.648073,-0.59197 9.166768,-0.23338 12.29187,0.79871 2.592485,0.85619 2.599494,0.87308 2.25575,5.43811 -0.160689,2.13401 -0.344784,3.93264 -0.409101,3.99695 -0.06432,0.0643 -0.367184,-0.017 -0.673037,-0.18068 -1.95109,-1.04419 -14.966634,-0.9551 -18.448219,0.12628 -0.539937,0.1677 -0.581622,0.0662 -0.779176,-1.8977 z m 10.949982,-0.63946 c 1.059958,-0.36951 1.644441,-1.29121 1.644441,-2.59321 0,-0.84111 -0.158276,-1.17731 -0.814051,-1.7291 -2.372212,-1.99609 -5.55691,0.97478 -3.647321,3.40242 0.485354,0.61703 1.277985,1.12797 1.842204,1.1875 0.08742,0.009 0.526052,-0.1112 0.974727,-0.26761 z m -1.189312,-1.30312 c -0.07611,-0.29104 -0.2208,-0.52917 -0.321535,-0.52917 -0.100735,0 -0.414272,-0.1697 -0.696746,-0.37711 -0.496046,-0.36423 -0.488733,-0.3866 0.214013,-0.65491 0.400183,-0.15279 0.727605,-0.45934 0.727605,-0.68122 0,-0.22189 0.178593,-0.40343 0.396875,-0.40343 0.218281,0 0.396875,0.18154 0.396875,0.40343 0,0.22188 0.304821,0.51931 0.677378,0.66096 0.690345,0.26247 0.664953,0.7877 -0.03808,0.7877 -0.213294,0 -0.500978,0.29765 -0.639294,0.66146 -0.303779,0.799 -0.531741,0.84105 -0.717087,0.13229 z"
         id="path81"
         inkscape:connector-curvature="0" />
      <path
         style="fill:#abb3e8;stroke-width:0.26458332;fill-opacity:1"
         d="m 34.094418,275.8858 c -0.220464,-0.31476 -0.341413,-0.66845 -0.268774,-0.78598 0.07264,-0.11753 -0.06603,-0.59679 -0.308163,-1.06501 -0.34145,-0.66029 -0.373139,-0.95876 -0.141221,-1.33011 0.396835,-0.63544 0.428188,-2.28234 0.06109,-3.20915 -0.411938,-1.04003 -0.403937,-1.06056 0.630574,-1.61768 0.883271,-0.47567 0.949036,-0.47724 1.438536,-0.0342 0.282123,0.25531 0.639514,0.38599 0.794206,0.29038 0.388194,-0.23992 0.351819,0.38463 -0.0964,1.65501 -0.379171,1.07469 -0.337158,1.82372 0.160581,2.86272 0.198282,0.41391 0.158155,0.77156 -0.154376,1.37592 -0.232267,0.44916 -0.422302,1.03687 -0.422302,1.30603 0,0.56184 -0.482285,1.12439 -0.963956,1.12439 -0.180925,0 -0.509334,-0.25753 -0.729798,-0.57228 z m 6.667921,-2.39105 c 0.246943,-0.24694 0.388056,-0.24694 0.635,0 0.246943,0.24694 0.17639,0.3175 -0.3175,0.3175 -0.49389,0 -0.564444,-0.0706 -0.3175,-0.3175 z m -11.038695,-1.15976 c 0.01269,-0.30822 0.07539,-0.37092 0.159852,-0.15985 0.07643,0.191 0.06703,0.4192 -0.02089,0.50712 -0.08792,0.0879 -0.150453,-0.0684 -0.138964,-0.34727 z m -4.597971,-25.42606 c -0.324999,-0.53021 -0.503146,-6.63425 -0.209627,-7.18269 0.429377,-0.8023 3.189053,-2.09857 5.221059,-2.45243 2.720971,-0.47384 9.848142,-0.16729 12.123403,0.52144 2.900137,0.87788 2.890226,0.85756 2.66038,5.45545 -0.190172,3.80417 -0.206071,3.88197 -0.760868,3.72353 -3.51994,-1.00521 -15.894462,-1.00279 -18.517138,0.004 -0.211485,0.0812 -0.444228,0.0501 -0.517209,-0.0689 z m 11.614999,-2.83585 c 1.193279,-1.19328 1.243963,-2.50091 0.139735,-3.60513 -0.417915,-0.41792 -1.075071,-0.83897 -1.460344,-0.93566 -1.529615,-0.38391 -3.332824,1.17712 -3.335068,2.88715 -7.94e-4,0.50563 0.295384,1.05043 0.898594,1.65364 1.251593,1.25159 2.50549,1.25159 3.757083,0 z m -2.132838,-0.92009 c -0.08806,-0.27744 -0.42405,-0.5834 -0.746654,-0.6799 l -0.586549,-0.17546 0.567354,-0.27794 c 0.312047,-0.15287 0.692427,-0.53325 0.845293,-0.84529 l 0.27794,-0.56736 0.169859,0.56513 c 0.09342,0.31082 0.427416,0.6912 0.742207,0.84529 l 0.572347,0.28017 -0.595313,0.17775 c -0.327422,0.0978 -0.595312,0.33543 -0.595312,0.52816 0,0.58035 -0.479481,0.6904 -0.651172,0.14945 z"
         id="path79"
         inkscape:connector-curvature="0" />
      <path
         style="fill:#abb3e8;stroke-width:0.26458332;fill-opacity:1"
         d="m 34.312292,275.75003 c -0.08325,-0.26541 -0.313232,-0.93362 -0.511069,-1.4849 -0.269383,-0.75066 -0.289494,-1.20373 -0.08009,-1.80442 0.243152,-0.6975 0.218945,-1.50312 -0.104765,-3.4869 -0.09561,-0.58592 1.380289,-1.57275 1.568188,-1.04854 0.0652,0.1819 0.360638,0.33073 0.656524,0.33073 0.436388,0 0.503005,0.11242 0.352783,0.59531 -0.354185,1.13853 -0.463228,3.30071 -0.192019,3.80747 0.201483,0.37648 0.14506,0.88842 -0.215588,1.95618 -0.499298,1.47825 -1.197642,2.01603 -1.473962,1.13507 z m -9.254447,-31.21626 c -0.377982,-4.45399 -0.205374,-5.38194 1.001092,-5.38194 0.288597,0 0.868141,-0.28896 1.287875,-0.64215 1.138832,-0.95826 3.30008,-1.31883 7.779902,-1.29794 2.88708,0.0135 4.401418,0.14097 5.55625,0.46781 0.873125,0.24712 1.992426,0.55192 2.487337,0.67735 1.74189,0.44146 1.900119,0.83009 1.617073,3.97174 -0.137573,1.52698 -0.25414,3.17601 -0.259041,3.66452 -0.0072,0.71374 -0.09439,0.8554 -0.44406,0.72122 -2.353093,-0.90296 -15.029331,-0.9034 -18.258361,-6.3e-4 -0.542256,0.1516 -0.579065,0.0471 -0.768067,-2.17999 z m 11.090108,0.33916 c 0.857813,-0.35842 1.756886,-1.72003 1.756886,-2.66073 0,-1.07684 -0.743786,-2.16372 -1.809612,-2.64434 -0.984669,-0.44402 -1.1869,-0.45506 -2.083637,-0.11376 -2.287026,0.87044 -2.785314,3.28835 -1.0146,4.92325 1.021773,0.94341 1.789983,1.06423 3.150963,0.49558 z m -1.594999,-2.23941 c -0.203583,-0.32599 -0.187867,-0.53341 0.05781,-0.76291 0.510481,-0.47686 0.976204,0.17892 0.545435,0.76803 -0.302244,0.41335 -0.342116,0.41301 -0.603242,-0.005 z m 7.317838,-3.34603 c 0.470586,-0.56702 0.129077,-1.19399 -0.650359,-1.19399 -0.723805,0 -0.824762,0.27433 -0.395869,1.07573 0.328546,0.61389 0.608621,0.64555 1.046228,0.11826 z"
         id="path77"
         inkscape:connector-curvature="0" />
    </g>
  </g>
</svg>
